<?xml version="1.0" encoding="utf-8"?>
<!-- Generator: Adobe Illustrator 24.0.2, SVG Export Plug-In . SVG Version: 6.00 Build 0)  -->
<svg version="1.1"
	 id="svg5" xmlns:inkscape="http://www.inkscape.org/namespaces/inkscape" xmlns:sodipodi="http://sodipodi.sourceforge.net/DTD/sodipodi-0.dtd" xmlns:svg="http://www.w3.org/2000/svg"
	 xmlns="http://www.w3.org/2000/svg" xmlns:xlink="http://www.w3.org/1999/xlink" x="0px" y="0px" viewBox="0 0 3578.4 448"
	 style="enable-background:new 0 0 3578.4 448;" xml:space="preserve">
<style type="text/css">
	.st0{font-family:'Helvetica';}
	.st1{font-size:77.5086px;}
	.st2{fill-rule:evenodd;clip-rule:evenodd;}
	.st3{fill:none;}
	.st4{stroke:#808080;stroke-width:14.1732;stroke-miterlimit:11.3386;}
	.st5{fill:#FFFFFF;}
	.st6{font-size:116.9611px;}
	.st7{fill:#FFFFFF;stroke:#1A1A1A;stroke-width:2.8346;stroke-miterlimit:11.3386;}
	.st8{fill:url(#path2887_1_);stroke:#000000;stroke-width:0.5;stroke-miterlimit:4;}
	.st9{fill:url(#path2889_1_);stroke:#000000;stroke-width:0.5;stroke-miterlimit:4;}
	.st10{fill:#FFFFFF;stroke:#000000;stroke-width:0.9818;}
	.st11{fill:#FFFFFF;stroke:#000000;stroke-width:1.142;}
	.st12{fill:#FFFFFF;stroke:#000000;stroke-width:1.0974;}
	.st13{fill:#FFFFFF;stroke:#000000;stroke-width:1.1668;}
	.st14{fill:#FFFFFF;stroke:#000000;stroke-width:1.1769;}
	.st15{fill:#FFFFFF;stroke:#000000;stroke-width:1.0313;}
	.st16{fill:#FFFFFF;stroke:#000000;stroke-width:0.75;}
	.st17{fill:#FFFFFF;stroke:#000000;stroke-width:1.036;}
	.st18{fill:url(#rect2911_1_);stroke:#000000;stroke-width:0.5;stroke-miterlimit:4;}
	.st19{fill:#FFFFFF;stroke:#000000;stroke-width:0.8051;}
	.st20{fill:url(#path2915_1_);stroke:#000000;stroke-width:0.5;stroke-miterlimit:4;}
	.st21{fill:#FFFFFF;stroke:#000000;stroke-width:0.7678;}
	.st22{fill:#FFFFFF;stroke:#000000;stroke-width:1.0201;}
	.st23{fill:#FFFFFF;stroke:#000000;stroke-width:0.7267;}
	.st24{fill:#FFFFFF;stroke:#000000;stroke-width:0.7395;}
	.st25{fill:#FFFFFF;stroke:#000000;stroke-width:0.6952;}
	.st26{fill:#FFFFFF;stroke:#000000;stroke-width:0.7461;}
	.st27{fill:#FFFFFF;stroke:#000000;stroke-width:0.7428;}
	.st28{fill:#FFFFFF;stroke:#000000;stroke-width:0.7386;}
	.st29{fill:#FFFFFF;stroke:#000000;stroke-width:0.7256;}
	.st30{fill:#FFFFFF;stroke:#000000;stroke-width:0.7221;}
	.st31{fill:#FFFFFF;stroke:#000000;stroke-width:0.7163;}
	.st32{fill:#FFFFFF;stroke:#000000;stroke-width:0.7114;}
	.st33{fill:#FFFFFF;stroke:#000000;stroke-width:0.6916;}
	.st34{fill:#FFFFFF;stroke:#000000;stroke-width:0.6648;}
	.st35{fill:#FFFFFF;stroke:#000000;stroke-width:0.6572;}
	.st36{fill:#FFFFFF;stroke:#000000;stroke-width:0.63;}
	.st37{fill:#FFFFFF;stroke:#000000;stroke-width:0.7237;}
	.st38{fill:url(#SVGID_1_);}
	.st39{fill:#606163;}
	.st40{fill:url(#SVGID_2_);}
	.st41{fill:url(#SVGID_3_);}
	.st42{fill:url(#SVGID_4_);}
	.st43{fill:url(#SVGID_5_);}
	.st44{fill:url(#SVGID_6_);}
	.st45{fill:#333333;}
	.st46{fill:url(#SVGID_7_);}
	.st47{fill:url(#SVGID_8_);}
	.st48{fill:url(#SVGID_9_);}
	.st49{fill:url(#SVGID_10_);}
	.st50{fill:url(#SVGID_11_);}
	.st51{fill:url(#SVGID_12_);}
	.st52{fill:url(#SVGID_13_);}
	.st53{fill:#696969;}
	.st54{fill:url(#SVGID_14_);}
	.st55{fill:none;stroke:#474747;}
</style>
<sodipodi:namedview  bordercolor="#666666" borderopacity="1.0" fit-margin-bottom="0" fit-margin-left="0" fit-margin-right="0" fit-margin-top="0" id="namedview7" inkscape:current-layer="layer1" inkscape:cx="2385.6051" inkscape:cy="296.77383" inkscape:document-units="mm" inkscape:guide-bbox="true" inkscape:pagecheckerboard="0" inkscape:pageopacity="0.0" inkscape:pageshadow="2" inkscape:window-height="1412" inkscape:window-maximized="1" inkscape:window-width="2560" inkscape:window-x="0" inkscape:window-y="0" inkscape:zoom="0.30663081" pagecolor="#ffffff" showgrid="false" showguides="true">
	<sodipodi:guide  id="guide8990" orientation="0,-1" position="354.55362,78.478726"></sodipodi:guide>
</sodipodi:namedview>
<image style="overflow:visible;enable-background:new    ;" width="253" height="252" id="image9345" xlink:href="4A2AB2291CE6397D.png"  transform="matrix(1.2357 0 0 1.2357 308.4279 6.8126)">
</image>
<text transform="matrix(1 0 0 1 -4.3525 365.6768)" class="st0 st1">CarpentriesOffline.img</text>
<path d="M339.3-52.1"/>
<path id="path8652" class="st2" d="M861.4,224l-28.3,28.3l99.2-28.3l-99.2-28.3L861.4,224z"/>
<path id="path7746" class="st2" d="M918.1,224"/>
<image style="overflow:visible;enable-background:new    ;" width="1329" height="1871" xlink:href="4A2AB2291CE6397F.jpeg"  transform="matrix(0.2395 0 0 0.2395 1615.6799 -5.023469e-02)">
</image>
<path class="st3" d="M339.3-52.1"/>
<path id="path8652-0" class="st2" d="M1531.3,224l-28.3,28.3l99.2-28.3l-99.2-28.3L1531.3,224z"/>
<path id="path7746-1" class="st2" d="M1588,224"/>
<path class="st2" d="M339.3-52.1"/>
<path id="path8652-0-1" class="st2" d="M1990.9,224l-28.3,28.3l99.2-28.3l-99.2-28.3L1990.9,224z"/>
<path id="path7746-1-5" class="st2" d="M2047.5,224"/>
<g id="g22952">
	<rect id="rect9523" x="954.2" y="32.9" class="st4" width="513.8" height="382.3"/>
	<text transform="matrix(1 0 0 1 1056.8594 259.838)" class="st5 st0 st6">$ dd</text>
</g>
<g id="g22855" transform="translate(-24.737301,-0.39966202)">
	<rect id="rect22771" x="2844.7" y="11.5" class="st7" width="757.1" height="425.8"/>
	
		<image style="overflow:visible;enable-background:new    ;" width="1927" height="1083" id="image22388" xlink:href="4A2AB2291CE6397A.png"  transform="matrix(0.3929 0 0 0.3929 2844.675 11.6643)">
	</image>
</g>
<path class="st3" d="M339.3-52.1"/>
<path id="path8652-0-1-3" class="st2" d="M2736,224l-28.3,28.3l99.2-28.3l-99.2-28.3L2736,224z"/>
<path id="path7746-1-5-4" class="st2" d="M2792.7,224"/>
<g>
	<g>
		
			<linearGradient id="path2887_1_" gradientUnits="userSpaceOnUse" x1="2611.8479" y1="324.3458" x2="2669.2517" y2="324.3458" gradientTransform="matrix(0.9988 -4.831699e-02 4.831699e-02 0.9988 -12.372 127.2448)">
			<stop  offset="0" style="stop-color:#F4F4F6"/>
			<stop  offset="0.1142" style="stop-color:#E0E0E1"/>
			<stop  offset="0.3497" style="stop-color:#AAAAAC"/>
			<stop  offset="0.6824" style="stop-color:#565657"/>
			<stop  offset="1" style="stop-color:#000000"/>
		</linearGradient>
		<path id="path2887" class="st8" d="M2614.5,320.9l17.3,0c0.2,0,4.2,0.2,8.6,0.1c5.6-0.1,11.9-0.3,11.9,0
			c-7.3-0.8-18.5,1.7-18.2,3.4c0.2,1,4.5,1.7,10.7,1.7c7.8-0.2,9.8-0.4,17.6-0.8c1.1,0,2.2-0.2,3.1-0.4c2.5-0.7,4-1.9,4-1.9
			c0,0.1-0.8,1.2-1.8,1.8c-0.6,0.5-0.7,0.6-1.3,0.8c-0.2,0.1-1,0.3-1.2,0.4c-9.7,1.2-32.3,1.3-32.6,1.3c-13,0.5-19.6,0.9-19.6,0.9
			c-0.5-0.1-0.9-0.1-0.8-0.7l1.1-5.9C2613.4,321.2,2613.9,320.8,2614.5,320.9L2614.5,320.9z"/>
		
			<linearGradient id="path2889_1_" gradientUnits="userSpaceOnUse" x1="2608.7324" y1="312.0186" x2="2670.5117" y2="312.0186" gradientTransform="matrix(0.9988 -4.831699e-02 4.831699e-02 0.9988 -12.372 127.2448)">
			<stop  offset="0" style="stop-color:#F4F4F6"/>
			<stop  offset="0.1142" style="stop-color:#E0E0E1"/>
			<stop  offset="0.3497" style="stop-color:#AAAAAC"/>
			<stop  offset="0.6824" style="stop-color:#565657"/>
			<stop  offset="1" style="stop-color:#000000"/>
		</linearGradient>
		<path id="path2889" class="st9" d="M2611,301.5l48.5-1.7c1.5,0,3.1-0.1,4.1,0.6c2.2,1.6,3.9,5.8,5,9.3c0.5,1.6,1,3.2,1.4,4.7
			c0.5,2.2,0.6,3.9,0.6,5.5c0,1.6-2.6,1.3-3.1,1.3c0,0-1.5,0-3.7,0c-1.1,0-2.4,0-3.8,0c-6,0-15.2,0-23.7-0.1
			c-7.7,0-14.9-0.2-19.4-0.2c-0.8,0-1.7,0-2.7-0.7c-0.7-0.4-1-1.1-1.2-1.7c-1.4-4.2-5.1-15.6-5.1-15.6
			C2607.9,301.3,2609.7,301.6,2611,301.5z"/>
		<path id="path2891" class="st10" d="M2668.6,301.9c0.9,0,2.1,0.1,2.7,0.8c1.8,2.1,2.9,4.9,3.8,7.5c1.2,3.3,1.7,4.8,2.1,7.1
			c0.3,1.8-0.9,2.2-2.4,2.2c-1.3,0-4.3,0.3-4.4-0.6c-0.1-4.3-1.3-8.3-2.9-12.1c-0.5-1.3-1.4-3-1.9-4.3
			C2665.5,302,2668.1,301.9,2668.6,301.9z"/>
		<path id="path2893" class="st11" d="M2669.3,321.1c0.1,0,0.6-0.1,0.9-0.4c0.4-0.3,0.4-0.9,0.5-1.3c0.5,0,2,0.1,2.6,0.1
			c0.9,0,1.2,0,1.7,0c0.3,0,0.8,0,1.2-0.2c0.1,0,0.5-0.1,0.6-0.3c0.3-0.2,0.3-0.5,0.3-0.4c-0.2,0.8-1.2,3.2-1.6,3.6
			c-0.5,0.4-1.1,0.5-1.7,0.5c-1.1,0-2.4-0.5-3.6-0.5c-0.4,0-0.7,0.6-0.9,0.9c-1.3,1-3.8,1.9-5.3,2.1c-4.5,0.4-9,0.4-13.5,0.6
			c-4.9,0.2-9.1,0.4-14-0.3c-4.9-1.1-0.9-2.7,1.6-3.2c6.5-1.8,13.4-1.5,20.1-1.3C2663.9,321.2,2668.1,321.1,2669.3,321.1
			L2669.3,321.1z"/>
		<path id="path2895" class="st12" d="M2669.3,307c1.7,3.1,3,6.5,4,9.9c0.4,1.4-0.3,1.4-1,1c-0.3-0.2-0.4-0.7-0.6-1.1
			c-1-3.6-2.2-7-3.7-10.4C2668,305.7,2669,306.4,2669.3,307z"/>
		<path id="path2897" class="st12" d="M2671.4,305c0.4,0.8,1,1.7,1.3,2.5c0.6,1.3,1.1,2.7,1.4,4.1c0.3,1.1,0.4,2.1,0.8,3.2
			c0.4,1.4,0.7,3.8,0,3.3c-0.4-0.8-0.5-1.6-0.7-2.5c-0.3-1.1-0.5-2.6-0.8-3.8c-0.7-2.9-1.7-5.5-3.9-7.6c-0.7-0.7-2-0.3-2.1-0.6
			c-0.1-0.4,1.1-0.7,2.3-0.2C2670.6,303.9,2671.2,304.7,2671.4,305L2671.4,305z"/>
		<path id="path2899" class="st11" d="M2671.8,319.5c0.8,0.1,1.2,0.1,1.9,0.1c0.6,0,1.1,0,1.6,0c0.2,0,0.7-0.1,0.9-0.2l0.7-0.2
			l-0.3,1.1c-1,0-2,0.1-3,0.1c-1.5,0-3-0.3-3-0.3l0.1-0.6L2671.8,319.5z"/>
		<path id="path2901" class="st13" d="M2587.1,306.5l15.6-0.7l3.9,13l-16.1,0.5L2587.1,306.5z"/>
		<path id="path2903" class="st14" d="M2590.4,319.3l16.1-0.5l-0.8,3.8l-16,0.1L2590.4,319.3z"/>
		<path id="path2905" class="st15" d="M2587,306.4l2.9,10.7l0.5,2.2l-0.8,3.6l-3.4-12.5L2587,306.4z"/>
		<path id="path2907" class="st16" d="M2618.5,306.4c12.6-0.3,24.9-1.4,37.6-1.7c1.4,1.1,1.5,1.7,2.4,3.4c0.7,1.4,2.2,4.3,0.6,4.5
			c-11.1,0.8-22.3,0.7-33.5,1.1c-0.6,0-5.3,0.1-5.6-0.3c-1.7-1.7-2.6-5.9-2.6-5.9C2617.3,306.9,2617.9,306.5,2618.5,306.4
			L2618.5,306.4z"/>
		<path id="path2909" class="st17" d="M2606.6,318.9l1.6,1.8l-1,6.3c0.3,0.4-1-0.9-1.6-2.3c0-0.4-0.1-0.2,0.1-0.8
			c0-0.2,0.1-0.4,0.2-0.8C2605.9,321.6,2606.6,318.9,2606.6,318.9L2606.6,318.9z"/>
		
			<linearGradient id="rect2911_1_" gradientUnits="userSpaceOnUse" x1="2606.739" y1="323.6053" x2="2612.0125" y2="323.6053" gradientTransform="matrix(0.9988 -4.831699e-02 4.831699e-02 0.9988 -12.372 127.2448)">
			<stop  offset="0" style="stop-color:#F4F4F6"/>
			<stop  offset="0.1142" style="stop-color:#E0E0E1"/>
			<stop  offset="0.3497" style="stop-color:#AAAAAC"/>
			<stop  offset="0.6824" style="stop-color:#565657"/>
			<stop  offset="1" style="stop-color:#000000"/>
		</linearGradient>
		<path id="rect2911" class="st18" d="M2608.9,320.7l2.6,0.5c0.4,0.1,0.7,0.4,0.6,0.8l-0.9,5.4c-0.1,0.4-0.4,0.7-0.8,0.6l-2.6-0.5
			c-0.4-0.1-0.7-0.4-0.6-0.8l0.9-5.4C2608.1,320.9,2608.5,320.7,2608.9,320.7z"/>
		<path id="path2913" class="st19" d="M2603.8,303.6l4.1,15.4c0,0.1,0.4,1.5,0.3,1.6l-1.4-1.6c-0.1,0-0.2,0-0.2-0.1l-3.6-13l0.7-2.3
			C2603.7,303.5,2603.8,303.5,2603.8,303.6L2603.8,303.6z"/>
		
			<linearGradient id="path2915_1_" gradientUnits="userSpaceOnUse" x1="2604.5388" y1="311.3776" x2="2612.2832" y2="311.3776" gradientTransform="matrix(0.9988 -4.831699e-02 4.831699e-02 0.9988 -12.372 127.2448)">
			<stop  offset="0" style="stop-color:#F4F4F6"/>
			<stop  offset="0.1142" style="stop-color:#E0E0E1"/>
			<stop  offset="0.3497" style="stop-color:#AAAAAC"/>
			<stop  offset="0.6824" style="stop-color:#565657"/>
			<stop  offset="1" style="stop-color:#000000"/>
		</linearGradient>
		<path id="path2915" class="st20" d="M2603.7,303.4c0.1-0.4,0.5-0.5,0.7-0.6c0.3-0.1,0.6-0.1,1.1-0.2c0.6-0.1,1.2,0.1,1.5,0.7
			c1.6,4.1,5.2,15.7,5.2,15.7c0.1,0.4,0.2,2.1-0.1,2.6c-0.1,0.2-0.3-0.4-0.4-0.3l-2.8-0.5c-0.6,0.2-0.7-0.8-0.9-1.4
			C2606.7,314.3,2605,309,2603.7,303.4L2603.7,303.4z"/>
		<path id="path2917" class="st21" d="M2608,302.2l-0.3,0.9l5.6,16.6l1.3,1.1l-1.2,0.4l-1.4,0c0,0,0.1-0.6,0.1-1.1
			c0-0.5-0.1-1-0.1-1l-4.9-15.4L2608,302.2L2608,302.2z"/>
		<path id="path2919" class="st22" d="M2612.3,321.2l1.1,0l-1.1,6.7l-1.1,0L2612.3,321.2z"/>
		<path id="rect2925" class="st23" d="M2643,321.5L2643,321.5c0.1,0,0.2,0.2,0.2,0.3l-0.8,4.2c0,0.2-0.1,0.3-0.3,0.2l0,0
			c-0.1,0-0.2-0.2-0.2-0.3l0.8-4.2C2642.7,321.6,2642.8,321.5,2643,321.5z"/>
		<path id="rect2927" class="st24" d="M2645,321.3L2645,321.3c0.1,0,0.2,0.2,0.1,0.3l-0.8,4.4c0,0.2-0.1,0.3-0.3,0.2l0,0
			c-0.1,0-0.2-0.2-0.1-0.3l0.8-4.4C2644.7,321.4,2644.8,321.2,2645,321.3z"/>
		<path id="rect2929" class="st25" d="M2641,321.9L2641,321.9c0.1,0,0.2,0.2,0.2,0.3l-0.7,3.7c0,0.1-0.1,0.2-0.3,0.2l0,0
			c-0.1,0-0.2-0.2-0.2-0.3l0.7-3.7C2640.7,321.9,2640.8,321.9,2641,321.9z"/>
		<path id="rect2931" class="st26" d="M2646.9,321.1L2646.9,321.1c0.1,0,0.2,0.2,0.1,0.3l-0.9,4.5c0,0.2-0.1,0.3-0.3,0.3l0,0
			c-0.1,0-0.2-0.2-0.1-0.3l0.9-4.5C2646.7,321.2,2646.8,321.1,2646.9,321.1z"/>
		<path id="rect2933" class="st27" d="M2648.9,321.1L2648.9,321.1c0.1,0,0.2,0.2,0.1,0.3l-0.9,4.4c0,0.2-0.1,0.3-0.3,0.3h0
			c-0.1,0-0.2-0.2-0.1-0.3l0.9-4.4C2648.6,321.2,2648.8,321.1,2648.9,321.1z"/>
		<path id="rect2935" class="st28" d="M2650.8,321.1L2650.8,321.1c0.1,0,0.2,0.2,0.1,0.3l-0.8,4.4c0,0.2-0.1,0.3-0.3,0.2l0,0
			c-0.1,0-0.2-0.2-0.1-0.3l0.8-4.4C2650.6,321.2,2650.7,321.1,2650.8,321.1z"/>
		<path id="rect2937" class="st28" d="M2652.8,321.1L2652.8,321.1c0.1,0,0.2,0.2,0.1,0.3l-0.8,4.4c0,0.2-0.1,0.3-0.3,0.2l0,0
			c-0.1,0-0.2-0.2-0.1-0.3l0.8-4.4C2652.6,321.2,2652.7,321.1,2652.8,321.1z"/>
		<path id="rect2939" class="st29" d="M2654.8,321.1L2654.8,321.1c0.1,0,0.2,0.2,0.2,0.3l-0.8,4.2c0,0.2-0.1,0.3-0.3,0.2h0
			c-0.1,0-0.2-0.2-0.2-0.3l0.8-4.2C2654.6,321.2,2654.7,321.1,2654.8,321.1z"/>
		<path id="rect2941" class="st29" d="M2656.8,321.1L2656.8,321.1c0.1,0,0.2,0.2,0.2,0.3l-0.8,4.2c0,0.2-0.1,0.3-0.3,0.2l0,0
			c-0.1,0-0.2-0.2-0.2-0.3l0.8-4.2C2656.5,321.2,2656.6,321.1,2656.8,321.1z"/>
		<path id="rect2943" class="st30" d="M2658.7,321.1L2658.7,321.1c0.1,0,0.2,0.2,0.2,0.3l-0.8,4.1c0,0.2-0.1,0.3-0.3,0.2l0,0
			c-0.1,0-0.2-0.2-0.2-0.3l0.8-4.1C2658.5,321.2,2658.6,321.1,2658.7,321.1z"/>
		<path id="rect2945" class="st31" d="M2660.7,321.1L2660.7,321.1c0.1,0,0.2,0.2,0.2,0.3l-0.8,4c0,0.1-0.1,0.2-0.3,0.2l0,0
			c-0.1,0-0.2-0.2-0.2-0.3l0.8-4C2660.4,321.1,2660.6,321,2660.7,321.1z"/>
		<path id="rect2947" class="st32" d="M2662.6,321.1L2662.6,321.1c0.1,0,0.2,0.2,0.2,0.3l-0.8,3.9c0,0.1-0.1,0.2-0.3,0.2l0,0
			c-0.1,0-0.2-0.2-0.2-0.3l0.8-3.9C2662.4,321.1,2662.5,321,2662.6,321.1z"/>
		<path id="rect2949" class="st33" d="M2664.6,321.2L2664.6,321.2c0.1,0,0.2,0.2,0.2,0.3l-0.7,3.7c0,0.1-0.1,0.2-0.3,0.2l0,0
			c-0.1,0-0.2-0.2-0.2-0.3l0.7-3.7C2664.3,321.3,2664.5,321.2,2664.6,321.2z"/>
		<path id="rect2951" class="st34" d="M2666.6,321.2L2666.6,321.2c0.1,0,0.2,0.1,0.2,0.3l-0.6,3.3c0,0.1-0.1,0.2-0.3,0.2h0
			c-0.1,0-0.2-0.1-0.2-0.3l0.6-3.3C2666.3,321.3,2666.4,321.2,2666.6,321.2z"/>
		<path id="rect2953" class="st35" d="M2638.9,322.2L2638.9,322.2c0.1,0,0.2,0.1,0.2,0.3l-0.6,3.2c0,0.1-0.1,0.2-0.3,0.2l0,0
			c-0.1,0-0.2-0.1-0.2-0.3l0.6-3.2C2638.7,322.3,2638.8,322.2,2638.9,322.2z"/>
		<path id="path2955" class="st36" d="M2593.7,307.9l2.8-0.1l0.7,2.3l-2.9,0.1L2593.7,307.9L2593.7,307.9z"/>
		<path id="path2957" class="st36" d="M2595.6,315l2.8-0.1l0.7,2.3l-2.9,0.1L2595.6,315L2595.6,315z"/>
		<g id="g19085" transform="matrix(1.0006 0 0 1.2183 332.36 -17.492)">
			<path id="path19087" class="st37" d="M2255.2,271.1l2-0.2l0,1.7l4-0.2l-0.2-1.6l2-0.1l-0.1-0.7l-2.4,0.1l-0.8,0l0.2,1.5l-1.7,0.1
				l0-1.5l-1.2,0.1l-2,0.1L2255.2,271.1L2255.2,271.1z"/>
			<path id="path19089" class="st37" d="M2263,270.6l2-0.1l0,1.7l4-0.2l-0.2-1.6l2,0.1l-0.1-0.8l-2.4,0.1l-0.8,0l0.2,1.5l-1.7,0.1
				l0-1.5l-1.2,0.1l-2,0.1L2263,270.6L2263,270.6z"/>
		</g>
	</g>
	<g>
		<g>
			<path d="M2628.6,311.3c-0.2,0.1-0.6,0.2-1.1,0.3c-1.1,0.1-1.6-0.4-1.1-1.6c0.6-1.1,1.7-1.9,2.7-2c0.4,0,0.6,0,0.7,0.1
				c-0.1,0.1-0.1,0.2-0.2,0.4c-0.1-0.1-0.3-0.1-0.6-0.1c-0.8,0.1-1.6,0.6-2,1.6c-0.4,0.8-0.1,1.3,0.8,1.2c0.3,0,0.6-0.1,0.9-0.2
				C2628.6,311.1,2628.6,311.2,2628.6,311.3z"/>
			<path d="M2630.7,311.3c0-0.1,0-0.2,0.1-0.3c0,0,0,0,0,0c-0.2,0.2-0.6,0.4-1,0.4c-0.6,0-0.7-0.3-0.6-0.6c0.2-0.6,0.9-1,1.9-1.1
				c0,0,0,0,0-0.1c0.1-0.2,0.1-0.6-0.4-0.5c-0.2,0-0.5,0.1-0.7,0.2c0-0.1,0-0.2,0-0.3c0.3-0.2,0.6-0.3,0.9-0.3
				c0.8-0.1,0.8,0.4,0.6,0.9c-0.1,0.4-0.2,0.6-0.3,0.9c-0.1,0.2-0.1,0.4-0.1,0.6C2631,311.3,2630.9,311.3,2630.7,311.3z M2631,310
				c-0.5,0-1.1,0.2-1.3,0.6c-0.1,0.3,0.1,0.4,0.3,0.4c0.4,0,0.6-0.3,0.8-0.5c0,0,0.1-0.1,0.1-0.1
				C2630.9,310.3,2630.9,310.2,2631,310z"/>
			<path d="M2632.3,309.5c0.1-0.3,0.1-0.5,0.2-0.8c0.2,0,0.2,0,0.4,0c0,0.2-0.1,0.3-0.1,0.5c0,0,0,0,0,0c0.2-0.3,0.5-0.6,0.8-0.6
				c0.1,0,0.1,0,0.1,0c0,0.2,0,0.3-0.1,0.4c0,0-0.1,0-0.2,0c-0.3,0-0.6,0.3-0.7,0.6c0,0.1-0.1,0.1-0.1,0.2c-0.1,0.5-0.2,0.8-0.3,1.3
				c-0.2,0-0.3,0-0.5,0C2632.1,310.5,2632.2,310.2,2632.3,309.5z"/>
			<path d="M2634.1,309.4c0.1-0.3,0.1-0.6,0.1-0.8c0.2,0,0.2,0,0.4,0c0,0.2,0,0.3,0,0.4c0,0,0,0,0,0c0.2-0.3,0.5-0.5,0.9-0.5
				c0.6,0,1,0.4,0.9,1.2c-0.1,0.9-0.7,1.4-1.3,1.4c-0.4,0-0.7-0.1-0.8-0.3c0,0,0,0,0,0c-0.1,0.5-0.1,0.8-0.2,1.3c-0.2,0-0.3,0-0.5,0
				C2633.8,311,2633.9,310.5,2634.1,309.4z M2634.4,310c0,0.1,0,0.1,0,0.2c0,0.3,0.3,0.5,0.7,0.5c0.5,0,0.8-0.4,0.9-1
				c0-0.5-0.2-0.9-0.7-0.9c-0.3,0-0.6,0.3-0.8,0.6c0,0.1,0,0.1-0.1,0.2C2634.4,309.8,2634.4,309.8,2634.4,310z"/>
			<path d="M2637.2,309.7c0,0.6,0.4,0.8,0.9,0.8c0.3,0,0.5-0.1,0.7-0.2c0,0.1,0.1,0.2,0.1,0.3c-0.2,0.1-0.5,0.2-0.9,0.2
				c-0.8,0-1.3-0.4-1.3-1.2c0-0.7,0.5-1.3,1.2-1.4c0.8,0,1,0.6,1,1.1c0,0.1,0,0.2,0,0.2C2638.3,309.6,2638,309.6,2637.2,309.7z
				 M2638.6,309.3c0-0.3-0.1-0.7-0.6-0.7c-0.4,0-0.6,0.5-0.7,0.8C2637.8,309.3,2638.1,309.3,2638.6,309.3z"/>
			<path d="M2639.5,308.9c0-0.3,0-0.5-0.1-0.7c0.2,0,0.2,0,0.4,0c0,0.2,0,0.2,0.1,0.4c0,0,0,0,0,0c0.1-0.2,0.3-0.5,0.7-0.5
				c0.3,0,0.9,0.2,1,1c0.1,0.6,0.2,0.9,0.3,1.5c-0.2,0-0.3,0-0.5,0c-0.1-0.6-0.1-0.8-0.2-1.4c-0.1-0.4-0.3-0.7-0.7-0.7
				c-0.3,0-0.5,0.2-0.5,0.5c0,0.1,0,0.1,0,0.2c0.1,0.6,0.1,0.9,0.2,1.5c-0.2,0-0.3,0-0.5,0C2639.6,310,2639.6,309.6,2639.5,308.9z"
				/>
			<path d="M2642.5,307.4c0.1,0.3,0.1,0.4,0.2,0.7c0.2,0,0.4,0,0.6,0c0,0.1,0.1,0.2,0.1,0.3c-0.2,0-0.4,0-0.6,0
				c0.1,0.5,0.2,0.8,0.3,1.3c0.1,0.3,0.2,0.5,0.5,0.5c0.1,0,0.2,0,0.3,0c0,0.1,0.1,0.2,0.1,0.3c-0.1,0-0.2,0.1-0.4,0.1
				c-0.2,0-0.4-0.1-0.6-0.2c-0.2-0.1-0.3-0.3-0.3-0.6c-0.1-0.5-0.2-0.8-0.3-1.3c-0.1,0-0.2,0-0.4,0c0-0.1,0-0.2-0.1-0.3
				c0.1,0,0.2,0,0.4,0c-0.1-0.2-0.1-0.4-0.1-0.6C2642.3,307.4,2642.3,307.4,2642.5,307.4z"/>
			<path d="M2644,308.8c-0.1-0.3-0.2-0.5-0.3-0.8c0.1,0,0.2,0,0.4,0c0.1,0.2,0.1,0.3,0.2,0.5c0,0,0,0,0,0c0-0.3,0.2-0.6,0.5-0.6
				c0,0,0.1,0,0.1,0c0.1,0.2,0.1,0.3,0.2,0.4c0,0-0.1,0-0.2,0c-0.3,0-0.4,0.3-0.4,0.6c0,0.1,0,0.1,0,0.2c0.2,0.5,0.3,0.8,0.4,1.3
				c-0.2,0-0.3,0-0.5,0C2644.3,309.8,2644.2,309.5,2644,308.8z"/>
			<path d="M2645.5,307.3c0.1,0.1,0,0.3-0.1,0.3c-0.1,0-0.3-0.1-0.3-0.3c-0.1-0.2,0-0.3,0.1-0.3
				C2645.3,307,2645.4,307.1,2645.5,307.3z M2646.2,310.4c-0.4-1-0.6-1.5-0.9-2.5c0.2,0,0.2,0,0.4,0c0.4,1,0.6,1.5,1,2.5
				C2646.5,310.4,2646.4,310.4,2646.2,310.4z"/>
			<path d="M2647.2,309.2c0.3,0.6,0.8,0.8,1.2,0.8c0.3,0,0.5-0.1,0.6-0.1c0.1,0.1,0.1,0.2,0.2,0.3c-0.1,0.1-0.4,0.2-0.8,0.2
				c-0.8,0-1.5-0.5-1.8-1.2c-0.3-0.7-0.2-1.3,0.5-1.4c0.7,0,1.3,0.7,1.5,1.1c0,0.1,0.1,0.2,0.1,0.2
				C2648.2,309.2,2647.9,309.2,2647.2,309.2z M2648.3,308.9c-0.1-0.3-0.5-0.7-0.9-0.7c-0.4,0-0.4,0.4-0.3,0.7
				C2647.6,308.9,2647.8,308.9,2648.3,308.9z"/>
			<path d="M2649.8,309.9c0.2,0.1,0.5,0.2,0.7,0.2c0.3,0,0.4-0.2,0.3-0.4c-0.1-0.2-0.3-0.3-0.7-0.4c-0.5-0.2-0.9-0.4-1-0.7
				c-0.2-0.4-0.1-0.7,0.4-0.7c0.2,0,0.5,0.1,0.6,0.1c0,0.1,0.1,0.2,0.1,0.3c-0.1-0.1-0.3-0.1-0.5-0.1c-0.2,0-0.3,0.2-0.2,0.3
				c0.1,0.2,0.3,0.3,0.7,0.4c0.5,0.2,0.8,0.4,1.1,0.7c0.3,0.4,0.1,0.7-0.5,0.8c-0.3,0-0.6-0.1-0.8-0.2
				C2649.8,310.1,2649.8,310,2649.8,309.9z"/>
		</g>
	</g>
</g>
<g>
	
		<linearGradient id="SVGID_1_" gradientUnits="userSpaceOnUse" x1="2592.1157" y1="160.1836" x2="2596.3059" y2="160.1836" gradientTransform="matrix(1 0 0 -1 0 447.8898)">
		<stop  offset="0" style="stop-color:#3D3D3D"/>
		<stop  offset="0.2665" style="stop-color:#373737"/>
		<stop  offset="0.6178" style="stop-color:#272727"/>
		<stop  offset="1" style="stop-color:#0D0D0D"/>
	</linearGradient>
	<path class="st38" d="M2596.7,285c-0.4,0.9-0.8,1.9-1.1,2.8c-0.2,0.4-0.4,0.8-0.6,1.1c-0.3,0.3-0.6,0.6-0.9,0.8
		c-0.3,0.2-0.7,0.4-1.1,0.5c-0.4,0.1-0.8,0.2-1.3,0.2l1.1-2.8c0.4,0,0.9-0.1,1.3-0.2c0.4-0.1,0.8-0.3,1.1-0.5
		c0.3-0.2,0.6-0.5,0.9-0.8C2596.4,285.7,2596.6,285.4,2596.7,285L2596.7,285z"/>
	<g>
		<polygon class="st39" points="2592.8,287.6 2591.7,290.5 2166.3,290.5 2165.2,287.7 		"/>
	</g>
	
		<linearGradient id="SVGID_2_" gradientUnits="userSpaceOnUse" x1="2165.7483" y1="160.163" x2="2162.6306" y2="160.163" gradientTransform="matrix(1 0 0 -1 0 447.8898)">
		<stop  offset="0" style="stop-color:#606163"/>
		<stop  offset="0.1268" style="stop-color:#666769"/>
		<stop  offset="0.2942" style="stop-color:#767779"/>
		<stop  offset="0.4841" style="stop-color:#929394"/>
		<stop  offset="0.6908" style="stop-color:#B8B8B9"/>
		<stop  offset="0.9085" style="stop-color:#E8E9E9"/>
		<stop  offset="1" style="stop-color:#FFFFFF"/>
	</linearGradient>
	<path class="st40" d="M2162.4,287.8c-0.4-0.9-0.8-1.9-1.1-2.8c0.2,0.4,0.4,0.8,0.6,1.1c0.3,0.3,0.6,0.6,0.9,0.9
		c0.3,0.2,0.7,0.4,1.1,0.6c0.4,0.1,0.8,0.2,1.3,0.2l1.1,2.8c-0.5,0-0.9-0.1-1.3-0.2c-0.4-0.1-0.8-0.3-1.1-0.6
		c-0.3-0.2-0.6-0.5-0.9-0.8C2162.8,288.6,2162.6,288.2,2162.4,287.8L2162.4,287.8z"/>
	
		<linearGradient id="SVGID_3_" gradientUnits="userSpaceOnUse" x1="2164.4805" y1="396.412" x2="2598.9219" y2="168.2699" gradientTransform="matrix(1 0 0 -1 0 447.8898)">
		<stop  offset="0" style="stop-color:#000000"/>
		<stop  offset="0.1335" style="stop-color:#0D0D0D"/>
		<stop  offset="0.7083" style="stop-color:#424242"/>
		<stop  offset="0.9888" style="stop-color:#575757"/>
	</linearGradient>
	<path class="st41" d="M2585.9,37c0.6,0,1.1,0.1,1.7,0.3c0.5,0.2,1,0.5,1.4,0.9c0.4,0.4,0.7,0.8,1,1.3c0.2,0.5,0.4,1,0.4,1.6
		l6.8,241.9c0,0.6-0.1,1.2-0.3,1.8c-0.2,0.5-0.5,1-0.9,1.5c-0.4,0.4-0.8,0.7-1.4,1c-0.5,0.2-1.1,0.4-1.7,0.4l-427.5,0
		c-0.6,0-1.2-0.1-1.7-0.4c-0.5-0.2-1-0.6-1.4-1c-0.4-0.4-0.7-0.9-0.9-1.5c-0.2-0.5-0.3-1.1-0.3-1.8l6.6-242c0-0.6,0.2-1.1,0.4-1.6
		c0.2-0.5,0.6-0.9,1-1.3c0.4-0.4,0.9-0.7,1.4-0.9c0.5-0.2,1.1-0.3,1.7-0.3L2585.9,37L2585.9,37z"/>
	
		<linearGradient id="SVGID_4_" gradientUnits="userSpaceOnUse" x1="2378.7163" y1="33.1979" x2="2378.7163" y2="160.8441" gradientTransform="matrix(1 0 0 -1 0 447.8898)">
		<stop  offset="0" style="stop-color:#F4F4F6"/>
		<stop  offset="0.1142" style="stop-color:#E0E0E1"/>
		<stop  offset="0.3497" style="stop-color:#AAAAAC"/>
		<stop  offset="0.6824" style="stop-color:#565657"/>
		<stop  offset="1" style="stop-color:#000000"/>
	</linearGradient>
	<path class="st42" d="M2591.6,288.9c0.6,0,1.2,0.1,1.8,0.1c0.6,0.1,1.1,0.2,1.5,0.4c0.4,0.2,0.8,0.4,1.1,0.6
		c0.3,0.2,0.5,0.5,0.5,0.7l32.3,119c0.1,0.3,0,0.7-0.1,1c-0.2,0.3-0.5,0.6-0.9,0.8c-0.4,0.2-0.9,0.4-1.5,0.5
		c-0.6,0.1-1.2,0.2-1.9,0.2l-491.3,0c-0.7,0-1.4-0.1-1.9-0.2c-0.6-0.1-1.1-0.3-1.5-0.5c-0.4-0.2-0.7-0.5-0.9-0.8
		c-0.2-0.3-0.2-0.6-0.1-1l31.8-119c0.1-0.3,0.3-0.5,0.5-0.7c0.3-0.2,0.7-0.4,1.1-0.6c0.4-0.2,1-0.3,1.5-0.4c0.6-0.1,1.2-0.1,1.8-0.1
		L2591.6,288.9L2591.6,288.9z"/>
	<g>
		
			<linearGradient id="SVGID_5_" gradientUnits="userSpaceOnUse" x1="2378.7302" y1="33.6395" x2="2378.7302" y2="158.3075" gradientTransform="matrix(1 0 0 -1 0 447.8898)">
			<stop  offset="0" style="stop-color:#FFFFFF"/>
			<stop  offset="0.3304" style="stop-color:#A0A0A0"/>
			<stop  offset="0.6536" style="stop-color:#4A4A4A"/>
			<stop  offset="0.8793" style="stop-color:#151515"/>
			<stop  offset="0.9888" style="stop-color:#000000"/>
		</linearGradient>
		<path class="st43" d="M2596,290c-0.3-0.2-0.7-0.4-1.1-0.6c-0.4-0.2-1-0.3-1.5-0.4c-0.6-0.1-1.2-0.1-1.8-0.1l-426.3,0
			c-0.6,0-1.2,0.1-1.8,0.1c-0.6,0.1-1.1,0.2-1.5,0.4c-0.3,0.1-0.6,0.3-0.8,0.4c-0.1,0.2-0.2,0.4-0.3,0.6c-0.2,0.5-0.3,1.1-0.3,1.8
			l3.3,120.1h12.1l-2.8-113.9h410.5l-2.5,113.9l12.1,0l3.4-120c0-0.5-0.1-1.1-0.2-1.6C2596.5,290.4,2596.3,290.2,2596,290L2596,290z
			"/>
	</g>
	
		<linearGradient id="SVGID_6_" gradientUnits="userSpaceOnUse" x1="2624.3303" y1="31.8408" x2="2628.5205" y2="31.8408" gradientTransform="matrix(1 0 0 -1 0 447.8898)">
		<stop  offset="0" style="stop-color:#0D0D0D"/>
		<stop  offset="0.6136" style="stop-color:#070707"/>
		<stop  offset="1" style="stop-color:#000000"/>
	</linearGradient>
	<path class="st44" d="M2628.9,410.2c-0.2,3.2-0.4,6.5-0.6,9.7c0,0.3-0.2,0.6-0.4,0.8c-0.2,0.3-0.5,0.5-0.9,0.7
		c-0.4,0.2-0.9,0.3-1.4,0.4c-0.5,0.1-1.8,0.2-2.5,0.2l1.3-9.7c0.6,0,1.2-0.1,1.8-0.2c0.5-0.1,1-0.2,1.4-0.4c0.4-0.2,0.7-0.4,0.9-0.7
		C2628.8,410.7,2628.9,410.4,2628.9,410.2L2628.9,410.2z"/>
	<polygon class="st45" points="2624.4,412.2 2623.8,421.9 2133.7,422 2133.1,412.2 	"/>
	
		<linearGradient id="SVGID_7_" gradientUnits="userSpaceOnUse" x1="2133.5471" y1="32.0415" x2="2128.884" y2="31.5729" gradientTransform="matrix(1 0 0 -1 0 447.8898)">
		<stop  offset="0" style="stop-color:#0D0D0D"/>
		<stop  offset="9.750000e-02" style="stop-color:#131313"/>
		<stop  offset="0.2262" style="stop-color:#232323"/>
		<stop  offset="0.3724" style="stop-color:#3F3F3F"/>
		<stop  offset="0.5314" style="stop-color:#656565"/>
		<stop  offset="0.7009" style="stop-color:#969696"/>
		<stop  offset="0.8763" style="stop-color:#D1D1D1"/>
		<stop  offset="1" style="stop-color:#FFFFFF"/>
	</linearGradient>
	<path class="st46" d="M2129.2,419.9c-0.2-3.2-0.4-6.5-0.6-9.7c0,0.3,0.2,0.6,0.4,0.8c0.2,0.2,0.5,0.5,0.9,0.7
		c0.4,0.2,0.9,0.3,1.4,0.4c0.5,0.1,1.1,0.2,1.8,0.2l1.1,9.7c-0.6,0-1.7-0.1-2.2-0.2c-0.5-0.1-1-0.3-1.4-0.4
		c-0.4-0.2-0.7-0.4-0.9-0.7C2129.3,420.4,2129.2,420.2,2129.2,419.9L2129.2,419.9z"/>
	
		<linearGradient id="SVGID_8_" gradientUnits="userSpaceOnUse" x1="2311.9724" y1="62.3613" x2="2435.7166" y2="62.3613" gradientTransform="matrix(1 0 0 -1 0 447.8898)">
		<stop  offset="0" style="stop-color:#F4F4F4"/>
		<stop  offset="0.1633" style="stop-color:#E0E0E0"/>
		<stop  offset="0.4998" style="stop-color:#AAAAAA"/>
		<stop  offset="0.9769" style="stop-color:#555555"/>
		<stop  offset="0.9831" style="stop-color:#545454"/>
	</linearGradient>
	<path class="st47" d="M2426,369.6l-103.6,0c-1.1,0-2.1,0.1-3,0.3c-0.9,0.2-1.8,0.4-2.5,0.8c-0.7,0.3-1.3,0.7-1.8,1.1
		c-0.4,0.4-0.7,0.9-0.7,1.4l-2.4,24.6c-0.1,0.5,0.1,1,0.5,1.5c0.4,0.5,0.9,0.9,1.6,1.2c0.7,0.3,1.5,0.6,2.5,0.8
		c0.9,0.2,2,0.3,3.1,0.3l108.3,0c1.1,0,2.2-0.1,3.1-0.3c0.9-0.2,1.8-0.5,2.5-0.8c0.7-0.3,1.3-0.8,1.6-1.2c0.4-0.5,0.6-1,0.5-1.5
		c0,0.5-0.2,1-0.5,1.5c-0.4,0.5-0.9,0.9-1.6,1.2c-0.7,0.3-1.5,0.6-2.5,0.8c-0.9,0.2-2,0.3-3.1,0.3l-108.3,0c-1.1,0-2.2-0.1-3.1-0.3
		c-0.9-0.2-1.8-0.5-2.5-0.8c-0.7-0.3-1.2-0.8-1.6-1.2c-0.4-0.5-0.5-1-0.5-1.5l0.8-7.9l122.4,0l-1.2-16.7c0-0.5-0.3-1-0.7-1.4
		c-0.4-0.4-1-0.8-1.7-1.1c-0.7-0.3-1.6-0.6-2.5-0.8C2428.1,369.7,2427.1,369.6,2426,369.6L2426,369.6z"/>
	
		<linearGradient id="SVGID_9_" gradientUnits="userSpaceOnUse" x1="2433.6831" y1="49.0027" x2="2313.2505" y2="55.9142" gradientTransform="matrix(1 0 0 -1 0 447.8898)">
		<stop  offset="0" style="stop-color:#383838"/>
		<stop  offset="0.4335" style="stop-color:#7D7D7D"/>
		<stop  offset="0.8073" style="stop-color:#B2B2B2"/>
		<stop  offset="0.9888" style="stop-color:#C7C7C7"/>
	</linearGradient>
	<path class="st48" d="M2435.2,389.8l-122.4,0l-0.8,7.9c-0.1,0.5,0.1,1,0.5,1.5c0.4,0.5,0.9,0.9,1.6,1.2c0.7,0.3,1.5,0.6,2.5,0.8
		c0.9,0.2,2,0.3,3.1,0.3l108.3,0c1.1,0,2.2-0.1,3.1-0.3c0.9-0.2,1.8-0.5,2.5-0.8c0.7-0.3,1.3-0.8,1.6-1.2s0.6-1,0.5-1.5
		L2435.2,389.8L2435.2,389.8z"/>
	<g>
		
			<linearGradient id="SVGID_10_" gradientUnits="userSpaceOnUse" x1="2312.908" y1="66.0162" x2="2435.3369" y2="58.5505" gradientTransform="matrix(1 0 0 -1 0 447.8898)">
			<stop  offset="0" style="stop-color:#474747"/>
			<stop  offset="0.1449" style="stop-color:#5C5C5C"/>
			<stop  offset="0.4435" style="stop-color:#919191"/>
			<stop  offset="0.8666" style="stop-color:#E6E6E6"/>
			<stop  offset="0.9831" style="stop-color:#FFFFFF"/>
		</linearGradient>
		<path class="st49" d="M2316.4,401.8c-1-0.2-1.9-0.5-2.6-0.9c-0.7-0.4-1.4-0.8-1.8-1.4c-0.3-0.4-0.6-0.9-0.6-1.5c0,0,0,0,0,0
			c0,0,0,0,0,0c0,0,0,0,0,0c0,0,0,0,0,0v0c0,0,0,0,0,0c0,0,0,0,0,0c0-0.1,0-0.2,0-0.2l0.8-8.4h0l1.6-16.2c0.1-0.7,0.4-1.3,0.9-1.8
			c0.5-0.5,1.2-0.9,1.9-1.2c0.8-0.3,1.7-0.6,2.6-0.8c1-0.2,2-0.3,3.1-0.3H2426v1.2l-103.6,0c-1,0-2,0.1-2.9,0.3
			c-0.9,0.2-1.7,0.4-2.4,0.7c-0.7,0.3-1.2,0.7-1.6,1c-0.4,0.4-0.5,0.7-0.6,1l-1.6,16l121.2,0l-1.1-16.1c0-0.3-0.2-0.6-0.5-1
			c-0.3-0.4-0.9-0.7-1.6-1c-0.7-0.3-1.5-0.5-2.4-0.7c-0.9-0.2-1.9-0.3-2.9-0.3V369c1.1,0,2.1,0.1,3.1,0.3c1,0.2,1.8,0.5,2.6,0.8
			c0.8,0.3,1.4,0.7,1.9,1.2c0.5,0.5,0.8,1.1,0.9,1.8l1.2,17.3l-122.5,0l-0.7,7.4c0,0,0,0.1,0,0.1c0,0.3,0.1,0.6,0.4,0.9
			c0.3,0.4,0.8,0.7,1.4,1.1c0.6,0.3,1.4,0.6,2.3,0.8c0.9,0.2,1.9,0.3,3,0.3l108.3,0c1.1,0,2.1-0.1,3-0.3c0.9-0.2,1.7-0.5,2.4-0.8
			c0,0,0.1,0,0.1-0.1c0.5-0.3,0.9-0.6,1.2-0.9c0,0,0.1-0.1,0.1-0.1c0.3-0.3,0.4-0.7,0.4-1v0c0,0,0,0,0,0c0,0,0,0,0,0v0l1.1-0.1v0h0
			c0,0,0,0.1,0,0.2c0,0.7-0.3,1.3-0.7,1.7c-0.4,0.5-1.1,1-1.8,1.4c-0.8,0.4-1.6,0.7-2.6,0.9c-1,0.2-2.1,0.3-3.2,0.3l-108.3,0
			C2318.5,402.1,2317.4,402,2316.4,401.8L2316.4,401.8z"/>
	</g>
	<g>
		
			<linearGradient id="SVGID_11_" gradientUnits="userSpaceOnUse" x1="2312.3088" y1="56.2171" x2="2434.7332" y2="48.7515" gradientTransform="matrix(1 0 0 -1 0 447.8898)">
			<stop  offset="0" style="stop-color:#474747"/>
			<stop  offset="0.1449" style="stop-color:#5C5C5C"/>
			<stop  offset="0.4435" style="stop-color:#919191"/>
			<stop  offset="0.8666" style="stop-color:#E6E6E6"/>
			<stop  offset="0.9831" style="stop-color:#FFFFFF"/>
		</linearGradient>
		<path class="st50" d="M2316.4,401.8c-1-0.2-1.9-0.5-2.6-0.9c-0.7-0.4-1.4-0.8-1.8-1.4c-0.4-0.5-0.6-1.1-0.6-1.7c0-0.1,0-0.2,0-0.2
			l0.8-8.4l122.9,0h0.5l0.6,8.5c0,0,0,0.1,0,0.2c0,0.7-0.3,1.3-0.7,1.7c-0.4,0.5-1.1,1-1.8,1.4c-0.8,0.4-1.6,0.7-2.6,0.9
			c-1,0.2-2.1,0.3-3.2,0.3l-108.3,0C2318.5,402.1,2317.4,402,2316.4,401.8L2316.4,401.8z M2313.3,390.4l-0.7,7.4c0,0,0,0.1,0,0.1
			c0,0.3,0.1,0.6,0.4,0.9c0.3,0.4,0.8,0.7,1.4,1.1c0.6,0.3,1.4,0.6,2.3,0.8c0.9,0.2,1.9,0.3,3,0.3l108.3,0c1.1,0,2.1-0.1,3-0.3
			c0.9-0.2,1.7-0.5,2.4-0.8c0.7-0.3,1.1-0.7,1.4-1.1c0.3-0.3,0.4-0.7,0.4-1c0,0,0-0.1,0-0.1l-0.5-7.3L2313.3,390.4L2313.3,390.4z
			 M2434.6,389.8l0.6,0L2434.6,389.8L2434.6,389.8z"/>
	</g>
	
		<linearGradient id="SVGID_12_" gradientUnits="userSpaceOnUse" x1="2378.7654" y1="173.2343" x2="2378.7654" y2="397.1908" gradientTransform="matrix(1 0 0 -1 0 447.8898)">
		<stop  offset="0" style="stop-color:#E0E0E0"/>
		<stop  offset="0.1379" style="stop-color:#C3C3C3"/>
		<stop  offset="0.5532" style="stop-color:#6E6E6E"/>
		<stop  offset="0.8465" style="stop-color:#383838"/>
		<stop  offset="0.9888" style="stop-color:#242424"/>
	</linearGradient>
	<polygon class="st51" points="2584,276.9 2173.5,276.9 2179.1,50.2 2579.1,50.2 	"/>
	<g>
		
			<linearGradient id="SVGID_13_" gradientUnits="userSpaceOnUse" x1="2395.2156" y1="438.1024" x2="2624.3728" y2="187.6554" gradientTransform="matrix(1 0 0 -1 0 447.8898)">
			<stop  offset="0" style="stop-color:#BDBDBD"/>
			<stop  offset="0.3931" style="stop-color:#828282"/>
			<stop  offset="0.7862" style="stop-color:#4D4D4D"/>
			<stop  offset="0.9775" style="stop-color:#383838"/>
		</linearGradient>
		<path class="st52" d="M2594.5,287.3c0.5-0.2,1-0.6,1.4-1c0.4-0.4,0.7-0.9,0.9-1.5c0.2-0.5,0.3-1.1,0.3-1.8l-6.8-241.9
			c0-0.6-0.2-1.1-0.4-1.6c-0.2-0.5-0.6-0.9-1-1.3c-0.4-0.4-0.9-0.7-1.4-0.9c-0.5-0.2-1.1-0.3-1.7-0.3l-220.4,0
			c4.2,56.1,25.6,199.6,135.2,250.7l92.1,0C2593.4,287.6,2594,287.5,2594.5,287.3L2594.5,287.3z"/>
	</g>
	<path class="st45" d="M2604.9,355.1c0,2-1.7,3.6-3.7,3.6h-441.9c-2.1,0-3.7-1.6-3.7-3.6l14.9-56.4c0-2,1.7-3.6,3.7-3.6h412.1
		c2.1,0,3.7,1.6,3.7,3.6L2604.9,355.1L2604.9,355.1z"/>
	<g>
		<path class="st53" d="M2171.2,313c0.2,0.1,0.4,0.1,0.6,0.2c0.2,0,0.5,0.1,0.8,0.1h19.7c0.3,0,0.5,0,0.8-0.1c0.2,0,0.5-0.1,0.7-0.2
			c0.2-0.1,0.4-0.2,0.5-0.3c0.1-0.1,0.2-0.2,0.2-0.3l1.5-6.9c0-0.1,0-0.2-0.1-0.3c-0.1-0.1-0.2-0.2-0.4-0.3
			c-0.2-0.1-0.4-0.1-0.6-0.2c-0.2,0-0.5-0.1-0.7-0.1h-19.5c-0.3,0-0.5,0-0.8,0.1c-0.2,0-0.5,0.1-0.7,0.2c-0.2,0.1-0.4,0.2-0.5,0.3
			c-0.1,0.1-0.2,0.2-0.2,0.3l-1.7,7c0,0.1,0,0.2,0.1,0.3C2170.9,312.8,2171,312.9,2171.2,313L2171.2,313z M2197.4,313
			c0.2,0.1,0.4,0.1,0.6,0.2c0.2,0,0.5,0.1,0.8,0.1l19.7,0c0.3,0,0.5,0,0.8-0.1c0.2,0,0.5-0.1,0.7-0.2c0.2-0.1,0.4-0.2,0.5-0.3
			c0.1-0.1,0.2-0.2,0.2-0.3l1.3-6.9c0-0.1,0-0.2-0.1-0.3c-0.1-0.1-0.2-0.2-0.4-0.3c-0.2-0.1-0.4-0.1-0.6-0.2c-0.2,0-0.5-0.1-0.7-0.1
			l-19.5,0c-0.3,0-0.5,0-0.8,0.1c-0.2,0-0.5,0.1-0.7,0.2c-0.2,0.1-0.4,0.2-0.5,0.3c-0.1,0.1-0.2,0.2-0.2,0.3l-1.5,6.9
			c0,0.1,0,0.2,0.1,0.3C2197.1,312.8,2197.2,312.9,2197.4,313L2197.4,313z M2225.8,304.7c-0.2,0-0.5,0.1-0.7,0.2
			c-0.2,0.1-0.4,0.2-0.5,0.3c-0.1,0.1-0.2,0.2-0.2,0.3l-1.3,6.9c0,0.1,0,0.2,0.1,0.3c0.1,0.1,0.2,0.2,0.4,0.3
			c0.2,0.1,0.4,0.1,0.6,0.2c0.2,0,0.5,0.1,0.8,0.1l19.7,0c0.3,0,0.5,0,0.8-0.1c0.2,0,0.5-0.1,0.7-0.2c0.2-0.1,0.3-0.2,0.5-0.3
			c0.1-0.1,0.2-0.2,0.2-0.3l1.1-6.9c0-0.1,0-0.2-0.1-0.3c-0.1-0.1-0.2-0.2-0.4-0.3c-0.2-0.1-0.4-0.1-0.6-0.2c-0.2,0-0.5-0.1-0.7-0.1
			h-19.5C2226.3,304.6,2226,304.6,2225.8,304.7L2225.8,304.7z M2250.4,313.2c0.2,0,0.5,0.1,0.8,0.1h19.7c0.3,0,0.5,0,0.8-0.1
			c0.2,0,0.5-0.1,0.6-0.2c0.2-0.1,0.3-0.2,0.5-0.3c0.1-0.1,0.2-0.2,0.2-0.3l0.9-7c0-0.1,0-0.2-0.1-0.3c-0.1-0.1-0.2-0.2-0.4-0.3
			c-0.2-0.1-0.4-0.1-0.6-0.2c-0.2,0-0.5-0.1-0.7-0.1h-19.5c-0.3,0-0.5,0-0.8,0.1c-0.2,0-0.5,0.1-0.6,0.2c-0.2,0.1-0.3,0.2-0.5,0.3
			c-0.1,0.1-0.2,0.2-0.2,0.3l-1.1,6.9c0,0.1,0,0.2,0.1,0.3c0.1,0.1,0.2,0.2,0.4,0.3C2250,313.1,2250.2,313.1,2250.4,313.2
			L2250.4,313.2z M2299.3,304.9c-0.2-0.1-0.4-0.1-0.6-0.2c-0.2,0-0.5-0.1-0.8-0.1h-19.5c-0.3,0-0.5,0-0.8,0.1
			c-0.2,0-0.5,0.1-0.6,0.2c-0.2,0.1-0.3,0.2-0.4,0.3c-0.1,0.1-0.2,0.2-0.2,0.3l-0.8,7c0,0.1,0,0.2,0.1,0.3c0.1,0.1,0.2,0.2,0.4,0.3
			c0.2,0.1,0.4,0.1,0.6,0.2c0.2,0,0.5,0.1,0.8,0.1l19.7,0c0.3,0,0.5,0,0.8-0.1c0.2,0,0.5-0.1,0.6-0.2c0.2-0.1,0.3-0.2,0.4-0.3
			c0.1-0.1,0.2-0.2,0.2-0.3l0.6-7c0-0.1,0-0.2-0.1-0.3C2299.6,305,2299.5,304.9,2299.3,304.9L2299.3,304.9z M2325.2,304.9
			c-0.2-0.1-0.4-0.1-0.6-0.2c-0.2,0-0.5-0.1-0.8-0.1l-19.5,0c-0.3,0-0.5,0-0.8,0.1c-0.2,0-0.5,0.1-0.6,0.2c-0.2,0.1-0.3,0.2-0.4,0.3
			c-0.1,0.1-0.2,0.2-0.2,0.3l-0.6,7c0,0.1,0,0.2,0.1,0.3c0.1,0.1,0.2,0.2,0.4,0.3c0.2,0.1,0.4,0.1,0.6,0.2c0.2,0,0.5,0.1,0.8,0.1
			h19.7c0.3,0,0.5,0,0.8-0.1c0.2,0,0.5-0.1,0.6-0.2c0.2-0.1,0.3-0.2,0.4-0.3c0.1-0.1,0.2-0.2,0.2-0.3l0.4-7c0-0.1,0-0.2-0.1-0.3
			C2325.6,305,2325.4,304.9,2325.2,304.9L2325.2,304.9z M2351.2,304.9c-0.2-0.1-0.4-0.1-0.6-0.2c-0.2,0-0.5-0.1-0.8-0.1h-19.5
			c-0.3,0-0.5,0-0.8,0.1c-0.2,0-0.4,0.1-0.6,0.2c-0.2,0.1-0.3,0.2-0.4,0.3c-0.1,0.1-0.2,0.2-0.2,0.3l-0.4,7c0,0.1,0,0.2,0.1,0.3
			c0.1,0.1,0.2,0.2,0.4,0.3c0.2,0.1,0.4,0.1,0.6,0.2c0.2,0,0.5,0.1,0.8,0.1l19.7,0c0.3,0,0.5,0,0.8-0.1c0.2,0,0.5-0.1,0.6-0.2
			c0.2-0.1,0.3-0.2,0.4-0.3c0.1-0.1,0.2-0.2,0.2-0.3l0.2-7c0-0.1,0-0.2-0.1-0.3C2351.5,305,2351.4,304.9,2351.2,304.9L2351.2,304.9z
			 M2377.6,305.1c-0.1-0.1-0.2-0.2-0.4-0.3c-0.2-0.1-0.4-0.1-0.6-0.2c-0.2,0-0.5-0.1-0.8-0.1l-19.5,0c-0.3,0-0.5,0-0.8,0.1
			c-0.2,0-0.4,0.1-0.6,0.2c-0.2,0.1-0.3,0.2-0.4,0.3c-0.1,0.1-0.2,0.2-0.2,0.3l-0.2,7c0,0.1,0,0.2,0.1,0.3c0.1,0.1,0.2,0.2,0.4,0.3
			c0.2,0.1,0.4,0.1,0.6,0.2c0.2,0,0.5,0.1,0.8,0.1l19.7,0c0.3,0,0.5,0,0.8-0.1c0.2,0,0.4-0.1,0.6-0.2c0.2-0.1,0.3-0.2,0.4-0.3
			c0.1-0.1,0.2-0.2,0.2-0.3l0-7C2377.7,305.3,2377.7,305.2,2377.6,305.1L2377.6,305.1z M2403.6,305.1c-0.1-0.1-0.2-0.2-0.4-0.3
			c-0.2-0.1-0.4-0.1-0.6-0.2c-0.2,0-0.5-0.1-0.8-0.1l-19.5,0c-0.3,0-0.5,0-0.8,0.1c-0.2,0-0.4,0.1-0.6,0.2c-0.2,0.1-0.3,0.2-0.4,0.3
			c-0.1,0.1-0.2,0.2-0.2,0.3l0,7c0,0.1,0.1,0.2,0.2,0.3c0.1,0.1,0.2,0.2,0.4,0.3c0.2,0.1,0.4,0.1,0.6,0.2c0.2,0,0.5,0.1,0.8,0.1
			h19.7c0.3,0,0.5,0,0.8-0.1c0.2,0,0.4-0.1,0.6-0.2s0.3-0.2,0.4-0.3c0.1-0.1,0.1-0.2,0.1-0.3l-0.2-7
			C2403.7,305.3,2403.7,305.2,2403.6,305.1L2403.6,305.1z M2429.5,305.1c-0.1-0.1-0.3-0.2-0.4-0.3c-0.2-0.1-0.4-0.1-0.6-0.2
			c-0.2,0-0.5-0.1-0.8-0.1h-19.5c-0.3,0-0.5,0-0.8,0.1c-0.2,0-0.4,0.1-0.6,0.2c-0.2,0.1-0.3,0.2-0.4,0.3c-0.1,0.1-0.1,0.2-0.1,0.3
			l0.2,7c0,0.1,0.1,0.2,0.2,0.3c0.1,0.1,0.3,0.2,0.4,0.3c0.2,0.1,0.4,0.1,0.6,0.2c0.2,0,0.5,0.1,0.8,0.1l19.7,0c0.3,0,0.5,0,0.8-0.1
			c0.2,0,0.4-0.1,0.6-0.2c0.2-0.1,0.3-0.2,0.4-0.3c0.1-0.1,0.1-0.2,0.1-0.3l-0.4-6.9C2429.7,305.3,2429.6,305.2,2429.5,305.1
			L2429.5,305.1z M2455.5,305.1c-0.1-0.1-0.3-0.2-0.4-0.3c-0.2-0.1-0.4-0.1-0.6-0.2c-0.2,0-0.5-0.1-0.8-0.1l-19.5,0
			c-0.3,0-0.5,0-0.8,0.1c-0.2,0-0.4,0.1-0.6,0.2c-0.2,0.1-0.3,0.2-0.4,0.3c-0.1,0.1-0.1,0.2-0.1,0.3l0.5,6.9c0,0.1,0.1,0.2,0.2,0.3
			c0.1,0.1,0.3,0.2,0.4,0.3c0.2,0.1,0.4,0.1,0.6,0.2c0.2,0,0.5,0.1,0.8,0.1h19.7c0.3,0,0.5,0,0.8-0.1c0.2,0,0.4-0.1,0.6-0.2
			c0.2-0.1,0.3-0.2,0.4-0.3c0.1-0.1,0.1-0.2,0.1-0.3l-0.7-7C2455.7,305.3,2455.6,305.2,2455.5,305.1L2455.5,305.1z M2481.5,305.1
			c-0.1-0.1-0.3-0.2-0.4-0.3c-0.2-0.1-0.4-0.1-0.6-0.2c-0.2,0-0.5-0.1-0.8-0.1h-19.5c-0.3,0-0.5,0-0.8,0.1c-0.2,0-0.4,0.1-0.6,0.2
			c-0.2,0.1-0.3,0.2-0.4,0.3c-0.1,0.1-0.1,0.2-0.1,0.3l0.7,7c0,0.1,0.1,0.2,0.2,0.3c0.1,0.1,0.3,0.2,0.4,0.3
			c0.2,0.1,0.4,0.1,0.6,0.2c0.2,0,0.5,0.1,0.8,0.1h19.7c0.3,0,0.5,0,0.8-0.1c0.2,0,0.4-0.1,0.6-0.2c0.2-0.1,0.3-0.2,0.4-0.3
			c0.1-0.1,0.1-0.2,0.1-0.3l-0.9-6.9C2481.6,305.3,2481.6,305.2,2481.5,305.1L2481.5,305.1z M2507.4,305.1c-0.1-0.1-0.3-0.2-0.5-0.3
			c-0.2-0.1-0.4-0.1-0.6-0.2c-0.2,0-0.5-0.1-0.8-0.1l-19.5,0c-0.3,0-0.5,0-0.7,0.1c-0.2,0-0.4,0.1-0.6,0.2c-0.2,0.1-0.3,0.2-0.4,0.3
			c-0.1,0.1-0.1,0.2-0.1,0.3l0.9,6.9c0,0.1,0.1,0.2,0.2,0.3c0.1,0.1,0.3,0.2,0.5,0.3c0.2,0.1,0.4,0.1,0.6,0.2c0.2,0,0.5,0.1,0.8,0.1
			l19.7,0c0.3,0,0.5,0,0.8-0.1c0.2,0,0.4-0.1,0.6-0.2c0.2-0.1,0.3-0.2,0.4-0.3c0.1-0.1,0.1-0.2,0.1-0.3l-1.1-6.9
			C2507.6,305.3,2507.6,305.2,2507.4,305.1L2507.4,305.1z M2559.8,305.1c-0.1-0.1-0.3-0.2-0.5-0.3c-0.2-0.1-0.4-0.1-0.7-0.2
			c-0.2,0-0.5-0.1-0.8-0.1h-45.6c-0.3,0-0.5,0-0.7,0.1c-0.2,0-0.4,0.1-0.6,0.2c-0.2,0.1-0.3,0.2-0.4,0.3c-0.1,0.1-0.1,0.2-0.1,0.3
			l1.1,6.9c0,0.1,0.1,0.2,0.2,0.3c0.1,0.1,0.3,0.2,0.5,0.3c0.2,0.1,0.4,0.1,0.7,0.2c0.2,0,0.5,0.1,0.8,0.1l46.1,0
			c0.3,0,0.5,0,0.8-0.1c0.2,0,0.4-0.1,0.6-0.2c0.2-0.1,0.3-0.2,0.4-0.3c0.1-0.1,0.1-0.2,0.1-0.3l-1.5-6.9
			C2560,305.3,2559.9,305.2,2559.8,305.1L2559.8,305.1z M2564.6,312.7c0.1,0.1,0.3,0.2,0.5,0.3c0.2,0.1,0.4,0.1,0.7,0.2
			c0.2,0,0.5,0.1,0.8,0.1h19.7c0.3,0,0.5,0,0.7-0.1c0.2,0,0.4-0.1,0.6-0.2c0.2-0.1,0.3-0.2,0.4-0.3c0.1-0.1,0.1-0.2,0.1-0.3
			l-1.8-6.9c0-0.1-0.1-0.2-0.2-0.3c-0.1-0.1-0.3-0.2-0.5-0.3c-0.2-0.1-0.4-0.1-0.7-0.2c-0.2,0-0.5-0.1-0.8-0.1h-19.5
			c-0.3,0-0.5,0-0.7,0.1c-0.2,0-0.4,0.1-0.6,0.2c-0.2,0.1-0.3,0.2-0.4,0.3c-0.1,0.1-0.1,0.2-0.1,0.3l1.6,6.9
			C2564.4,312.5,2564.5,312.6,2564.6,312.7L2564.6,312.7z M2229.5,323.4c0.2,0,0.5-0.1,0.7-0.2c0.2-0.1,0.4-0.2,0.5-0.3
			c0.1-0.1,0.2-0.2,0.2-0.3l1.2-7.1c0-0.1,0-0.2-0.1-0.3c-0.1-0.1-0.2-0.2-0.4-0.3c-0.2-0.1-0.4-0.1-0.6-0.2c-0.2,0-0.5-0.1-0.8-0.1
			l-19.7,0c-0.3,0-0.5,0-0.8,0.1c-0.2,0-0.5,0.1-0.7,0.2c-0.2,0.1-0.4,0.2-0.5,0.3c-0.1,0.1-0.2,0.2-0.2,0.3l-1.4,7.1
			c0,0.1,0,0.2,0.1,0.3c0.1,0.1,0.2,0.2,0.4,0.3c0.2,0.1,0.4,0.1,0.6,0.2c0.2,0,0.5,0.1,0.8,0.1h19.9
			C2229,323.5,2229.3,323.5,2229.5,323.4L2229.5,323.4z M2168.6,323.2c0.2,0.1,0.4,0.1,0.6,0.2c0.2,0,0.5,0.1,0.8,0.1l31.5,0
			c0.3,0,0.5,0,0.8-0.1c0.2,0,0.5-0.1,0.7-0.2c0.2-0.1,0.4-0.2,0.5-0.3c0.1-0.1,0.2-0.2,0.2-0.3l1.5-7.1c0-0.1,0-0.2-0.1-0.3
			c-0.1-0.1-0.2-0.2-0.4-0.3c-0.2-0.1-0.4-0.1-0.6-0.2c-0.2,0-0.5-0.1-0.8-0.1h-31.1c-0.3,0-0.5,0-0.8,0.1c-0.2,0-0.5,0.1-0.7,0.2
			c-0.2,0.1-0.4,0.2-0.5,0.3c-0.1,0.1-0.2,0.2-0.2,0.3l-1.8,7.1c0,0.1,0,0.2,0.1,0.3C2168.3,323,2168.5,323.1,2168.6,323.2
			L2168.6,323.2z M2256.1,323.4c0.2,0,0.5-0.1,0.7-0.2c0.2-0.1,0.4-0.2,0.5-0.3c0.1-0.1,0.2-0.2,0.2-0.3l1-7.1c0-0.1,0-0.2-0.1-0.3
			c-0.1-0.1-0.2-0.2-0.4-0.3c-0.2-0.1-0.4-0.1-0.6-0.2c-0.2,0-0.5-0.1-0.8-0.1l-19.7,0c-0.3,0-0.5,0-0.8,0.1c-0.2,0-0.5,0.1-0.7,0.2
			c-0.2,0.1-0.4,0.2-0.5,0.3c-0.1,0.1-0.2,0.2-0.2,0.3l-1.2,7.1c0,0.1,0,0.2,0.1,0.3c0.1,0.1,0.2,0.2,0.4,0.3
			c0.2,0.1,0.4,0.1,0.6,0.2c0.2,0,0.5,0.1,0.8,0.1h19.9C2255.6,323.5,2255.8,323.5,2256.1,323.4L2256.1,323.4z M2282.6,323.4
			c0.2,0,0.5-0.1,0.7-0.2c0.2-0.1,0.3-0.2,0.5-0.3c0.1-0.1,0.2-0.2,0.2-0.3l0.8-7.1c0-0.1,0-0.2-0.1-0.3c-0.1-0.1-0.2-0.2-0.4-0.3
			c-0.2-0.1-0.4-0.1-0.6-0.2c-0.2,0-0.5-0.1-0.8-0.1h-19.7c-0.3,0-0.5,0-0.8,0.1c-0.2,0-0.5,0.1-0.7,0.2c-0.2,0.1-0.3,0.2-0.5,0.3
			c-0.1,0.1-0.2,0.2-0.2,0.3l-1,7.1c0,0.1,0,0.2,0.1,0.3c0.1,0.1,0.2,0.2,0.4,0.3c0.2,0.1,0.4,0.1,0.6,0.2c0.2,0,0.5,0.1,0.8,0.1
			h19.9C2282.1,323.5,2282.4,323.5,2282.6,323.4L2282.6,323.4z M2288.6,314.7c-0.2,0-0.5,0.1-0.6,0.2c-0.2,0.1-0.3,0.2-0.5,0.3
			s-0.2,0.2-0.2,0.3l-0.8,7.1c0,0.1,0,0.2,0.1,0.3c0.1,0.1,0.2,0.2,0.4,0.3c0.2,0.1,0.4,0.1,0.6,0.2c0.2,0,0.5,0.1,0.8,0.1l19.9,0
			c0.3,0,0.5,0,0.8-0.1c0.2,0,0.5-0.1,0.6-0.2c0.2-0.1,0.3-0.2,0.4-0.3c0.1-0.1,0.2-0.2,0.2-0.3l0.6-7.1c0-0.1,0-0.2-0.1-0.3
			c-0.1-0.1-0.2-0.2-0.4-0.3c-0.2-0.1-0.4-0.1-0.6-0.2c-0.2,0-0.5-0.1-0.8-0.1l-19.7,0C2289.1,314.6,2288.9,314.7,2288.6,314.7
			L2288.6,314.7z M2314.9,314.7c-0.2,0-0.5,0.1-0.6,0.2c-0.2,0.1-0.3,0.2-0.4,0.3c-0.1,0.1-0.2,0.2-0.2,0.3l-0.5,7.1
			c0,0.1,0,0.2,0.1,0.3c0.1,0.1,0.2,0.2,0.4,0.3c0.2,0.1,0.4,0.1,0.6,0.2c0.2,0,0.5,0.1,0.8,0.1h19.9c0.3,0,0.5,0,0.8-0.1
			c0.2,0,0.5-0.1,0.6-0.2c0.2-0.1,0.3-0.2,0.4-0.3c0.1-0.1,0.2-0.2,0.2-0.3l0.3-7.1c0-0.1,0-0.2-0.1-0.3c-0.1-0.1-0.2-0.2-0.4-0.3
			c-0.2-0.1-0.4-0.1-0.6-0.2c-0.2,0-0.5-0.1-0.8-0.1h-19.7C2315.4,314.6,2315.2,314.7,2314.9,314.7L2314.9,314.7z M2341.2,314.7
			c-0.2,0-0.5,0.1-0.6,0.2c-0.2,0.1-0.3,0.2-0.4,0.3c-0.1,0.1-0.2,0.2-0.2,0.3l-0.3,7.1c0,0.1,0,0.2,0.1,0.3
			c0.1,0.1,0.2,0.2,0.4,0.3c0.2,0.1,0.4,0.1,0.6,0.2c0.2,0,0.5,0.1,0.8,0.1h19.9c0.3,0,0.5,0,0.8-0.1c0.2,0,0.5-0.1,0.6-0.2
			c0.2-0.1,0.3-0.2,0.4-0.3c0.1-0.1,0.2-0.2,0.2-0.3l0.1-7.1c0-0.1-0.1-0.2-0.1-0.3c-0.1-0.1-0.2-0.2-0.4-0.3
			c-0.2-0.1-0.4-0.1-0.6-0.2c-0.2,0-0.5-0.1-0.8-0.1H2342C2341.7,314.6,2341.4,314.6,2341.2,314.7L2341.2,314.7z M2367.5,314.7
			c-0.2,0-0.4,0.1-0.6,0.2c-0.2,0.1-0.3,0.2-0.4,0.3c-0.1,0.1-0.2,0.2-0.2,0.3l-0.1,7.1c0,0.1,0.1,0.2,0.2,0.3
			c0.1,0.1,0.2,0.2,0.4,0.3c0.2,0.1,0.4,0.1,0.6,0.2c0.2,0,0.5,0.1,0.8,0.1l19.9,0c0.3,0,0.5,0,0.8-0.1c0.2,0,0.5-0.1,0.6-0.2
			c0.2-0.1,0.3-0.2,0.4-0.3c0.1-0.1,0.2-0.2,0.2-0.3l-0.1-7.1c0-0.1-0.1-0.2-0.2-0.3c-0.1-0.1-0.2-0.2-0.4-0.3
			c-0.2-0.1-0.4-0.1-0.6-0.2c-0.2,0-0.5-0.1-0.8-0.1h-19.7C2368,314.6,2367.7,314.6,2367.5,314.7L2367.5,314.7z M2393.7,314.7
			c-0.2,0-0.4,0.1-0.6,0.2c-0.2,0.1-0.3,0.2-0.4,0.3c-0.1,0.1-0.2,0.2-0.1,0.3l0.1,7.1c0,0.1,0.1,0.2,0.2,0.3
			c0.1,0.1,0.2,0.2,0.4,0.3c0.2,0.1,0.4,0.1,0.6,0.2c0.2,0,0.5,0.1,0.8,0.1h19.9c0.3,0,0.5,0,0.8-0.1c0.2,0,0.4-0.1,0.6-0.2
			c0.2-0.1,0.3-0.2,0.4-0.3c0.1-0.1,0.1-0.2,0.1-0.3l-0.3-7.1c0-0.1-0.1-0.2-0.2-0.3c-0.1-0.1-0.3-0.2-0.4-0.3
			c-0.2-0.1-0.4-0.1-0.6-0.2c-0.2,0-0.5-0.1-0.8-0.1h-19.7C2394.3,314.6,2394,314.7,2393.7,314.7L2393.7,314.7z M2420,314.7
			c-0.2,0-0.4,0.1-0.6,0.2c-0.2,0.1-0.3,0.2-0.4,0.3c-0.1,0.1-0.1,0.2-0.1,0.3l0.4,7.1c0,0.1,0.1,0.2,0.2,0.3
			c0.1,0.1,0.3,0.2,0.4,0.3c0.2,0.1,0.4,0.1,0.6,0.2c0.2,0,0.5,0.1,0.8,0.1h19.9c0.3,0,0.5,0,0.8-0.1c0.2,0,0.4-0.1,0.6-0.2
			c0.2-0.1,0.3-0.2,0.4-0.3c0.1-0.1,0.1-0.2,0.1-0.3l-0.6-7.1c0-0.1-0.1-0.2-0.2-0.3c-0.1-0.1-0.3-0.2-0.4-0.3
			c-0.2-0.1-0.4-0.1-0.6-0.2c-0.2,0-0.5-0.1-0.8-0.1h-19.7C2420.5,314.6,2420.3,314.7,2420,314.7L2420,314.7z M2446.3,314.7
			c-0.2,0-0.4,0.1-0.6,0.2c-0.2,0.1-0.3,0.2-0.4,0.3c-0.1,0.1-0.1,0.2-0.1,0.3l0.6,7.1c0,0.1,0.1,0.2,0.2,0.3
			c0.1,0.1,0.3,0.2,0.4,0.3c0.2,0.1,0.4,0.1,0.6,0.2c0.2,0,0.5,0.1,0.8,0.1l19.9,0c0.3,0,0.5,0,0.8-0.1c0.2,0,0.4-0.1,0.6-0.2
			c0.2-0.1,0.3-0.2,0.4-0.3c0.1-0.1,0.1-0.2,0.1-0.3l-0.8-7.1c0-0.1-0.1-0.2-0.2-0.3c-0.1-0.1-0.3-0.2-0.5-0.3
			c-0.2-0.1-0.4-0.1-0.6-0.2c-0.2,0-0.5-0.1-0.8-0.1h-19.7C2446.8,314.6,2446.5,314.7,2446.3,314.7L2446.3,314.7z M2472.6,314.7
			c-0.2,0-0.4,0.1-0.6,0.2c-0.2,0.1-0.3,0.2-0.4,0.3c-0.1,0.1-0.1,0.2-0.1,0.3l0.8,7.1c0,0.1,0.1,0.2,0.2,0.3
			c0.1,0.1,0.3,0.2,0.5,0.3c0.2,0.1,0.4,0.1,0.7,0.2c0.2,0,0.5,0.1,0.8,0.1h19.9c0.3,0,0.5,0,0.8-0.1c0.2,0,0.4-0.1,0.6-0.2
			c0.2-0.1,0.3-0.2,0.4-0.3c0.1-0.1,0.1-0.2,0.1-0.3l-1-7.1c0-0.1-0.1-0.2-0.2-0.3c-0.1-0.1-0.3-0.2-0.5-0.3
			c-0.2-0.1-0.4-0.1-0.7-0.2c-0.2,0-0.5-0.1-0.8-0.1h-19.7C2473,314.6,2472.8,314.7,2472.6,314.7L2472.6,314.7z M2498.8,314.7
			c-0.2,0-0.4,0.1-0.6,0.2c-0.2,0.1-0.3,0.2-0.4,0.3c-0.1,0.1-0.1,0.2-0.1,0.3l1,7.1c0,0.1,0.1,0.2,0.2,0.3c0.1,0.1,0.3,0.2,0.5,0.3
			c0.2,0.1,0.4,0.1,0.7,0.2c0.2,0,0.5,0.1,0.8,0.1h19.9c0.3,0,0.5,0,0.8-0.1c0.2,0,0.4-0.1,0.6-0.2c0.2-0.1,0.3-0.2,0.4-0.3
			c0.1-0.1,0.1-0.2,0.1-0.3l-1.2-7.1c0-0.1-0.1-0.2-0.2-0.3c-0.1-0.1-0.3-0.2-0.5-0.3c-0.2-0.1-0.4-0.1-0.7-0.2
			c-0.2,0-0.5-0.1-0.8-0.1l-19.7,0C2499.3,314.6,2499.1,314.7,2498.8,314.7L2498.8,314.7z M2560.6,314.7c-0.2,0-0.5-0.1-0.8-0.1
			l-33.7,0c-0.3,0-0.5,0-0.8,0.1c-0.2,0-0.4,0.1-0.6,0.2c-0.2,0.1-0.3,0.2-0.4,0.3c-0.1,0.1-0.1,0.2-0.1,0.3l1.3,7.1
			c0,0.1,0.1,0.2,0.2,0.3c0.1,0.1,0.3,0.2,0.5,0.3c0.2,0.1,0.4,0.1,0.7,0.2c0.2,0,0.5,0.1,0.8,0.1h34.1c0.3,0,0.5,0,0.8-0.1
			c0.2,0,0.4-0.1,0.6-0.2c0.2-0.1,0.3-0.2,0.4-0.3c0.1-0.1,0.1-0.2,0.1-0.3l-1.6-7.1c0-0.1-0.1-0.2-0.2-0.3
			c-0.1-0.1-0.3-0.2-0.5-0.3C2561,314.8,2560.8,314.7,2560.6,314.7L2560.6,314.7z M2212.8,333.7c0.2,0.1,0.4,0.1,0.6,0.2
			c0.2,0,0.5,0.1,0.8,0.1l20.2,0c0.3,0,0.5,0,0.8-0.1c0.2,0,0.5-0.1,0.7-0.2c0.2-0.1,0.4-0.2,0.5-0.3c0.1-0.1,0.2-0.2,0.2-0.3
			l1.2-7.3c0-0.1,0-0.2-0.1-0.3c-0.1-0.1-0.2-0.2-0.4-0.3c-0.2-0.1-0.4-0.1-0.6-0.2c-0.2,0-0.5-0.1-0.8-0.1l-19.9,0
			c-0.3,0-0.5,0-0.8,0.1c-0.2,0-0.5,0.1-0.7,0.2c-0.2,0.1-0.4,0.2-0.5,0.3c-0.1,0.1-0.2,0.2-0.2,0.3l-1.4,7.3c0,0.1,0,0.2,0.1,0.3
			C2212.5,333.5,2212.6,333.6,2212.8,333.7L2212.8,333.7z M2166,333.7c0.2,0.1,0.4,0.1,0.6,0.2c0.2,0,0.5,0.1,0.8,0.1h38.8
			c0.3,0,0.5,0,0.8-0.1c0.2,0,0.5-0.1,0.7-0.2c0.2-0.1,0.4-0.2,0.5-0.3c0.1-0.1,0.2-0.2,0.2-0.3l1.4-7.3c0-0.1,0-0.2-0.1-0.3
			c-0.1-0.1-0.2-0.2-0.4-0.3c-0.2-0.1-0.4-0.1-0.6-0.2c-0.2,0-0.5-0.1-0.8-0.1l-38.4,0c-0.3,0-0.5,0-0.8,0.1c-0.3,0-0.5,0.1-0.7,0.2
			c-0.2,0.1-0.4,0.2-0.5,0.3c-0.1,0.1-0.2,0.2-0.2,0.3l-1.8,7.3c0,0.1,0,0.2,0.1,0.3C2165.7,333.5,2165.9,333.6,2166,333.7
			L2166,333.7z M2239.7,333.7c0.2,0.1,0.4,0.1,0.6,0.2c0.2,0,0.5,0.1,0.8,0.1l20.2,0c0.3,0,0.5,0,0.8-0.1c0.2,0,0.5-0.1,0.7-0.2
			c0.2-0.1,0.4-0.2,0.5-0.3c0.1-0.1,0.2-0.2,0.2-0.3l1-7.3c0-0.1,0-0.2-0.1-0.3c-0.1-0.1-0.2-0.2-0.4-0.3c-0.2-0.1-0.4-0.1-0.6-0.2
			c-0.2,0-0.5-0.1-0.8-0.1h-19.9c-0.3,0-0.5,0-0.8,0.1c-0.2,0-0.5,0.1-0.7,0.2c-0.2,0.1-0.4,0.2-0.5,0.3c-0.1,0.1-0.2,0.2-0.2,0.3
			l-1.2,7.3c0,0.1,0,0.2,0.1,0.3C2239.4,333.5,2239.5,333.6,2239.7,333.7L2239.7,333.7z M2266.5,333.7c0.2,0.1,0.4,0.1,0.6,0.2
			c0.2,0,0.5,0.1,0.8,0.1h20.2c0.3,0,0.5,0,0.8-0.1c0.2,0,0.5-0.1,0.7-0.2c0.2-0.1,0.3-0.2,0.5-0.3c0.1-0.1,0.2-0.2,0.2-0.3l0.7-7.3
			c0-0.1,0-0.2-0.1-0.3c-0.1-0.1-0.2-0.2-0.4-0.3c-0.2-0.1-0.4-0.1-0.6-0.2c-0.2,0-0.5-0.1-0.8-0.1l-19.9,0c-0.3,0-0.5,0-0.8,0.1
			c-0.2,0-0.5,0.1-0.7,0.2c-0.2,0.1-0.3,0.2-0.5,0.3c-0.1,0.1-0.2,0.2-0.2,0.3l-1,7.3c0,0.1,0,0.2,0.1,0.3
			C2266.2,333.5,2266.4,333.6,2266.5,333.7L2266.5,333.7z M2315.8,333.9c0.2,0,0.5-0.1,0.7-0.2c0.2-0.1,0.3-0.2,0.5-0.3
			c0.1-0.1,0.2-0.2,0.2-0.3l0.5-7.3c0-0.1,0-0.2-0.1-0.3c-0.1-0.1-0.2-0.2-0.4-0.3c-0.2-0.1-0.4-0.1-0.6-0.2c-0.2,0-0.5-0.1-0.8-0.1
			h-19.9c-0.3,0-0.5,0-0.8,0.1c-0.2,0-0.5,0.1-0.7,0.2c-0.2,0.1-0.3,0.2-0.5,0.3c-0.1,0.1-0.2,0.2-0.2,0.3l-0.7,7.3
			c0,0.1,0,0.2,0.1,0.3c0.1,0.1,0.2,0.2,0.4,0.3c0.2,0.1,0.4,0.1,0.6,0.2c0.2,0,0.5,0.1,0.8,0.1h20.2
			C2315.3,334,2315.5,333.9,2315.8,333.9L2315.8,333.9z M2342.7,333.9c0.2,0,0.5-0.1,0.6-0.2c0.2-0.1,0.3-0.2,0.4-0.3
			c0.1-0.1,0.2-0.2,0.2-0.3l0.3-7.3c0-0.1,0-0.2-0.1-0.3c-0.1-0.1-0.2-0.2-0.4-0.3c-0.2-0.1-0.4-0.1-0.6-0.2c-0.2,0-0.5-0.1-0.8-0.1
			l-19.9,0c-0.3,0-0.5,0-0.8,0.1c-0.2,0-0.5,0.1-0.6,0.2c-0.2,0.1-0.3,0.2-0.4,0.3c-0.1,0.1-0.2,0.2-0.2,0.3l-0.5,7.3
			c0,0.1,0,0.2,0.1,0.3c0.1,0.1,0.2,0.2,0.4,0.3c0.2,0.1,0.4,0.1,0.6,0.2c0.2,0,0.5,0.1,0.8,0.1h20.2
			C2342.2,334,2342.4,333.9,2342.7,333.9L2342.7,333.9z M2369.5,333.9c0.2,0,0.5-0.1,0.6-0.2c0.2-0.1,0.3-0.2,0.4-0.3
			c0.1-0.1,0.2-0.2,0.2-0.3l0.1-7.3c0-0.1-0.1-0.2-0.2-0.3s-0.2-0.2-0.4-0.3c-0.2-0.1-0.4-0.1-0.6-0.2c-0.2,0-0.5-0.1-0.8-0.1h-19.9
			c-0.3,0-0.5,0-0.8,0.1c-0.2,0-0.5,0.1-0.6,0.2c-0.2,0.1-0.3,0.2-0.4,0.3c-0.1,0.1-0.2,0.2-0.2,0.3l-0.3,7.3c0,0.1,0,0.2,0.1,0.3
			c0.1,0.1,0.2,0.2,0.4,0.3c0.2,0.1,0.4,0.1,0.6,0.2c0.2,0,0.5,0.1,0.8,0.1h20.2C2369,334,2369.3,333.9,2369.5,333.9L2369.5,333.9z
			 M2396.4,333.9c0.2,0,0.5-0.1,0.6-0.2c0.2-0.1,0.3-0.2,0.4-0.3c0.1-0.1,0.2-0.2,0.2-0.3l-0.2-7.3c0-0.1-0.1-0.2-0.2-0.3
			c-0.1-0.1-0.3-0.2-0.4-0.3c-0.2-0.1-0.4-0.1-0.6-0.2c-0.2,0-0.5-0.1-0.8-0.1h-19.9c-0.3,0-0.5,0-0.8,0.1c-0.2,0-0.5,0.1-0.6,0.2
			c-0.2,0.1-0.3,0.2-0.4,0.3c-0.1,0.1-0.2,0.2-0.2,0.3l0,7.3c0,0.1,0.1,0.2,0.2,0.3c0.1,0.1,0.2,0.2,0.4,0.3
			c0.2,0.1,0.4,0.1,0.6,0.2c0.2,0,0.5,0.1,0.8,0.1l20.2,0C2395.9,334,2396.2,333.9,2396.4,333.9L2396.4,333.9z M2423.3,333.9
			c0.2,0,0.5-0.1,0.6-0.2c0.2-0.1,0.3-0.2,0.4-0.3c0.1-0.1,0.1-0.2,0.1-0.3l-0.4-7.3c0-0.1-0.1-0.2-0.2-0.3
			c-0.1-0.1-0.3-0.2-0.4-0.3c-0.2-0.1-0.4-0.1-0.6-0.2c-0.2,0-0.5-0.1-0.8-0.1h-19.9c-0.3,0-0.5,0-0.8,0.1c-0.2,0-0.5,0.1-0.6,0.2
			c-0.2,0.1-0.3,0.2-0.4,0.3c-0.1,0.1-0.2,0.2-0.1,0.3l0.2,7.3c0,0.1,0.1,0.2,0.2,0.3c0.1,0.1,0.3,0.2,0.4,0.3
			c0.2,0.1,0.4,0.1,0.6,0.2c0.2,0,0.5,0.1,0.8,0.1l20.2,0C2422.8,334,2423,333.9,2423.3,333.9L2423.3,333.9z M2450.2,333.9
			c0.2,0,0.4-0.1,0.6-0.2c0.2-0.1,0.3-0.2,0.4-0.3c0.1-0.1,0.1-0.2,0.1-0.3l-0.6-7.3c0-0.1-0.1-0.2-0.2-0.3
			c-0.1-0.1-0.3-0.2-0.5-0.3c-0.2-0.1-0.4-0.1-0.7-0.2c-0.2,0-0.5-0.1-0.8-0.1h-19.9c-0.3,0-0.5,0-0.8,0.1c-0.2,0-0.4,0.1-0.6,0.2
			c-0.2,0.1-0.3,0.2-0.4,0.3c-0.1,0.1-0.1,0.2-0.1,0.3l0.4,7.3c0,0.1,0.1,0.2,0.2,0.3c0.1,0.1,0.3,0.2,0.4,0.3
			c0.2,0.1,0.4,0.1,0.6,0.2c0.2,0,0.5,0.1,0.8,0.1h20.2C2449.7,334,2449.9,333.9,2450.2,333.9L2450.2,333.9z M2477,333.9
			c0.2,0,0.4-0.1,0.6-0.2c0.2-0.1,0.3-0.2,0.4-0.3c0.1-0.1,0.1-0.2,0.1-0.3l-0.9-7.3c0-0.1-0.1-0.2-0.2-0.3
			c-0.1-0.1-0.3-0.2-0.5-0.3c-0.2-0.1-0.4-0.1-0.7-0.2c-0.2,0-0.5-0.1-0.8-0.1h-19.9c-0.3,0-0.5,0-0.8,0.1c-0.2,0-0.4,0.1-0.6,0.2
			c-0.2,0.1-0.3,0.2-0.4,0.3c-0.1,0.1-0.1,0.2-0.1,0.3l0.7,7.3c0,0.1,0.1,0.2,0.2,0.3c0.1,0.1,0.3,0.2,0.5,0.3
			c0.2,0.1,0.4,0.1,0.7,0.2c0.2,0,0.5,0.1,0.8,0.1h20.2C2476.6,334,2476.8,333.9,2477,333.9L2477,333.9z M2503.9,333.9
			c0.2,0,0.4-0.1,0.6-0.2c0.2-0.1,0.3-0.2,0.4-0.3c0.1-0.1,0.1-0.2,0.1-0.3l-1.1-7.3c0-0.1-0.1-0.2-0.2-0.3
			c-0.1-0.1-0.3-0.2-0.5-0.3c-0.2-0.1-0.4-0.1-0.7-0.2c-0.2,0-0.5-0.1-0.8-0.1l-19.9,0c-0.3,0-0.5,0-0.8,0.1c-0.2,0-0.4,0.1-0.6,0.2
			c-0.2,0.1-0.3,0.2-0.4,0.3c-0.1,0.1-0.1,0.2-0.1,0.3l0.9,7.3c0,0.1,0.1,0.2,0.2,0.3c0.1,0.1,0.3,0.2,0.5,0.3
			c0.2,0.1,0.4,0.1,0.7,0.2c0.2,0,0.5,0.1,0.8,0.1h20.2C2503.4,334,2503.7,333.9,2503.9,333.9L2503.9,333.9z M2565,333.9
			c0.2,0,0.4-0.1,0.6-0.2c0.2-0.1,0.3-0.2,0.4-0.3c0.1-0.1,0.1-0.2,0.1-0.3l-1.6-7.3c0-0.1-0.1-0.2-0.2-0.3
			c-0.1-0.1-0.3-0.2-0.5-0.3c-0.2-0.1-0.4-0.1-0.7-0.2c-0.2,0-0.5-0.1-0.8-0.1l-53.6,0c-0.3,0-0.5,0-0.8,0.1c-0.2,0-0.4,0.1-0.6,0.2
			c-0.2,0.1-0.3,0.2-0.4,0.3c-0.1,0.1-0.1,0.2-0.1,0.3l1.1,7.3c0,0.1,0.1,0.2,0.2,0.3c0.1,0.1,0.3,0.2,0.5,0.3
			c0.2,0.1,0.4,0.1,0.7,0.2c0.2,0,0.5,0.1,0.8,0.1l54.2,0C2564.6,334,2564.9,333.9,2565,333.9L2565,333.9z M2251.9,335.7
			c-0.1-0.1-0.2-0.2-0.4-0.3c-0.2-0.1-0.4-0.1-0.6-0.2c-0.2,0-0.5-0.1-0.8-0.1h-20.2c-0.3,0-0.5,0-0.8,0.1c-0.2,0-0.5,0.1-0.7,0.2
			c-0.2,0.1-0.4,0.2-0.5,0.3c-0.1,0.1-0.2,0.2-0.2,0.3l-1.3,7.5c0,0.1,0,0.2,0.1,0.4c0.1,0.1,0.2,0.2,0.4,0.3
			c0.2,0.1,0.4,0.2,0.6,0.2c0.2,0,0.5,0.1,0.8,0.1l20.4,0c0.3,0,0.6,0,0.8-0.1c0.3,0,0.5-0.1,0.7-0.2c0.2-0.1,0.4-0.2,0.5-0.3
			c0.1-0.1,0.2-0.2,0.2-0.4l1.1-7.5C2252,335.9,2251.9,335.8,2251.9,335.7L2251.9,335.7z M2222.9,343.5l1.3-7.5c0-0.1,0-0.2-0.1-0.3
			c-0.1-0.1-0.2-0.2-0.4-0.3c-0.2-0.1-0.4-0.1-0.6-0.2c-0.2,0-0.5-0.1-0.8-0.1l-55.3,0c-0.3,0-0.6,0-0.8,0.1c-0.3,0-0.5,0.1-0.7,0.2
			c-0.2,0.1-0.4,0.2-0.5,0.3c-0.1,0.1-0.2,0.2-0.2,0.4l-1.9,7.5c0,0.1,0,0.2,0.1,0.4c0.1,0.1,0.2,0.2,0.4,0.3
			c0.2,0.1,0.4,0.1,0.6,0.2c0.2,0,0.5,0.1,0.8,0.1h55.9c0.3,0,0.6,0,0.8-0.1c0.3,0,0.5-0.1,0.7-0.2c0.2-0.1,0.4-0.2,0.5-0.3
			C2222.8,343.8,2222.9,343.7,2222.9,343.5L2222.9,343.5z M2278.4,335.4c-0.2-0.1-0.4-0.1-0.6-0.2c-0.2,0-0.5-0.1-0.8-0.1h-20.2
			c-0.3,0-0.5,0-0.8,0.1c-0.2,0-0.5,0.1-0.7,0.2c-0.2,0.1-0.4,0.2-0.5,0.3c-0.1,0.1-0.2,0.2-0.2,0.3l-1.1,7.5c0,0.1,0,0.2,0.1,0.4
			c0.1,0.1,0.2,0.2,0.4,0.3c0.2,0.1,0.4,0.2,0.6,0.2c0.2,0,0.5,0.1,0.8,0.1h20.4c0.3,0,0.6,0,0.8-0.1c0.2,0,0.5-0.1,0.7-0.2
			c0.2-0.1,0.4-0.2,0.5-0.3c0.1-0.1,0.2-0.2,0.2-0.4l0.9-7.5c0-0.1,0-0.2-0.1-0.3C2278.7,335.6,2278.6,335.5,2278.4,335.4
			L2278.4,335.4z M2247.7,346.2c-0.2-0.1-0.4-0.2-0.6-0.2c-0.2,0-0.5-0.1-0.8-0.1h-20.4c-0.3,0-0.6,0-0.8,0.1
			c-0.3,0-0.5,0.1-0.7,0.2c-0.2,0.1-0.4,0.2-0.5,0.3c-0.1,0.1-0.2,0.2-0.2,0.4l-1.4,7.7c0,0.1,0,0.3,0.1,0.4
			c0.1,0.1,0.2,0.2,0.4,0.3c0.2,0.1,0.4,0.2,0.6,0.2c0.2,0,0.5,0.1,0.8,0.1h20.7c0.3,0,0.6,0,0.8-0.1c0.3,0,0.5-0.1,0.7-0.2
			c0.2-0.1,0.4-0.2,0.5-0.3c0.1-0.1,0.2-0.2,0.2-0.4l1.1-7.7c0-0.1,0-0.2-0.1-0.4C2248,346.4,2247.9,346.3,2247.7,346.2
			L2247.7,346.2z M2219.2,346.2c-0.2-0.1-0.4-0.2-0.6-0.2c-0.2,0-0.5-0.1-0.8-0.1h-20.4c-0.3,0-0.6,0-0.8,0.1
			c-0.3,0-0.5,0.1-0.7,0.2c-0.2,0.1-0.4,0.2-0.5,0.3c-0.1,0.1-0.2,0.2-0.2,0.4l-1.6,7.7c0,0.1,0,0.3,0.1,0.4
			c0.1,0.1,0.2,0.2,0.4,0.3c0.2,0.1,0.4,0.2,0.6,0.2c0.2,0,0.5,0.1,0.8,0.1h20.7c0.3,0,0.6,0,0.8-0.1c0.3,0,0.5-0.1,0.7-0.2
			c0.2-0.1,0.4-0.2,0.5-0.3c0.1-0.1,0.2-0.2,0.2-0.4l1.4-7.7c0-0.1,0-0.2-0.1-0.4C2219.5,346.4,2219.3,346.3,2219.2,346.2
			L2219.2,346.2z M2276.1,346.2c-0.2-0.1-0.4-0.2-0.6-0.2c-0.2,0-0.5-0.1-0.8-0.1h-20.4c-0.3,0-0.6,0-0.8,0.1
			c-0.3,0-0.5,0.1-0.7,0.2c-0.2,0.1-0.4,0.2-0.5,0.3c-0.1,0.1-0.2,0.2-0.2,0.4l-1.1,7.7c0,0.1,0,0.3,0.1,0.4
			c0.1,0.1,0.2,0.2,0.4,0.3c0.2,0.1,0.4,0.2,0.6,0.2c0.2,0,0.5,0.1,0.8,0.1h20.7c0.3,0,0.6,0,0.8-0.1c0.3,0,0.5-0.1,0.7-0.2
			c0.2-0.1,0.4-0.2,0.5-0.3c0.1-0.1,0.2-0.2,0.2-0.4l0.9-7.7c0-0.1,0-0.2-0.1-0.4C2276.4,346.4,2276.3,346.3,2276.1,346.2
			L2276.1,346.2z M2281.3,344.2c0.2,0.1,0.4,0.2,0.6,0.2c0.2,0,0.5,0.1,0.8,0.1l20.4,0c0.3,0,0.6,0,0.8-0.1c0.2,0,0.5-0.1,0.7-0.2
			c0.2-0.1,0.3-0.2,0.5-0.3c0.1-0.1,0.2-0.2,0.2-0.4l0.6-7.5c0-0.1,0-0.2-0.1-0.4c-0.1-0.1-0.2-0.2-0.4-0.3
			c-0.2-0.1-0.4-0.1-0.6-0.2c-0.2,0-0.5-0.1-0.8-0.1h-20.2c-0.3,0-0.5,0-0.8,0.1c-0.2,0-0.5,0.1-0.7,0.2c-0.2,0.1-0.3,0.2-0.5,0.3
			c-0.1,0.1-0.2,0.2-0.2,0.3l-0.8,7.5c0,0.1,0,0.2,0.1,0.4C2281,344,2281.2,344.1,2281.3,344.2L2281.3,344.2z M2308.5,344.2
			c0.2,0.1,0.4,0.2,0.6,0.2c0.2,0,0.5,0.1,0.8,0.1h20.4c0.3,0,0.6,0,0.8-0.1c0.2,0,0.5-0.1,0.7-0.2c0.2-0.1,0.3-0.2,0.5-0.3
			c0.1-0.1,0.2-0.2,0.2-0.4l0.4-7.5c0-0.1,0-0.2-0.1-0.4c-0.1-0.1-0.2-0.2-0.4-0.3c-0.2-0.1-0.4-0.1-0.6-0.2c-0.2,0-0.5-0.1-0.8-0.1
			h-20.2c-0.3,0-0.5,0-0.8,0.1c-0.2,0-0.5,0.1-0.7,0.2c-0.2,0.1-0.3,0.2-0.5,0.3c-0.1,0.1-0.2,0.2-0.2,0.4l-0.6,7.5
			c0,0.1,0,0.2,0.1,0.4C2308.2,344,2308.4,344.1,2308.5,344.2L2308.5,344.2z M2335.7,344.2c0.2,0.1,0.4,0.2,0.6,0.2
			c0.2,0,0.5,0.1,0.8,0.1h20.4c0.3,0,0.6,0,0.8-0.1s0.5-0.1,0.7-0.2c0.2-0.1,0.3-0.2,0.4-0.3c0.1-0.1,0.2-0.2,0.2-0.4l0.2-7.5
			c0-0.1-0.1-0.2-0.2-0.3c-0.1-0.1-0.2-0.2-0.4-0.3c-0.2-0.1-0.4-0.1-0.6-0.2c-0.2,0-0.5-0.1-0.8-0.1h-20.2c-0.3,0-0.5,0-0.8,0.1
			c-0.2,0-0.5,0.1-0.7,0.2c-0.2,0.1-0.3,0.2-0.4,0.3c-0.1,0.1-0.2,0.2-0.2,0.4l-0.4,7.5c0,0.1,0,0.2,0.1,0.4
			C2335.4,344,2335.6,344.1,2335.7,344.2L2335.7,344.2z M2362.9,344.2c0.2,0.1,0.4,0.2,0.6,0.2c0.2,0,0.5,0.1,0.8,0.1h20.4
			c0.3,0,0.5,0,0.8-0.1c0.2,0,0.5-0.1,0.6-0.2c0.2-0.1,0.3-0.2,0.4-0.3c0.1-0.1,0.2-0.2,0.2-0.4l-0.1-7.5c0-0.1-0.1-0.2-0.2-0.3
			c-0.1-0.1-0.3-0.2-0.4-0.3c-0.2-0.1-0.4-0.1-0.6-0.2c-0.2,0-0.5-0.1-0.8-0.1h-20.2c-0.3,0-0.5,0-0.8,0.1c-0.2,0-0.5,0.1-0.6,0.2
			c-0.2,0.1-0.3,0.2-0.4,0.3c-0.1,0.1-0.2,0.2-0.2,0.3l-0.1,7.5c0,0.1,0.1,0.2,0.2,0.4C2362.6,344,2362.8,344.1,2362.9,344.2
			L2362.9,344.2z M2389.7,343.9c0.1,0.1,0.3,0.2,0.4,0.3c0.2,0.1,0.4,0.2,0.7,0.2c0.2,0,0.5,0.1,0.8,0.1h20.4c0.3,0,0.5,0,0.8-0.1
			c0.2,0,0.5-0.1,0.6-0.2c0.2-0.1,0.3-0.2,0.4-0.3c0.1-0.1,0.2-0.2,0.1-0.4l-0.3-7.5c0-0.1-0.1-0.2-0.2-0.4
			c-0.1-0.1-0.3-0.2-0.4-0.3c-0.2-0.1-0.4-0.1-0.7-0.2c-0.2,0-0.5-0.1-0.8-0.1l-20.2,0c-0.3,0-0.5,0-0.8,0.1c-0.2,0-0.5,0.1-0.6,0.2
			c-0.2,0.1-0.3,0.2-0.4,0.3c-0.1,0.1-0.2,0.2-0.2,0.3l0.1,7.5C2389.5,343.7,2389.6,343.8,2389.7,343.9L2389.7,343.9z M2416.9,343.9
			c0.1,0.1,0.3,0.2,0.5,0.3c0.2,0.1,0.4,0.2,0.7,0.2c0.2,0,0.5,0.1,0.8,0.1h20.4c0.3,0,0.5,0,0.8-0.1c0.2,0,0.5-0.1,0.6-0.2
			c0.2-0.1,0.3-0.2,0.4-0.3c0.1-0.1,0.1-0.2,0.1-0.4l-0.6-7.5c0-0.1-0.1-0.2-0.2-0.4c-0.1-0.1-0.3-0.2-0.5-0.3
			c-0.2-0.1-0.4-0.1-0.7-0.2c-0.2,0-0.5-0.1-0.8-0.1h-20.2c-0.3,0-0.5,0-0.8,0.1c-0.2,0-0.5,0.1-0.6,0.2c-0.2,0.1-0.3,0.2-0.4,0.3
			c-0.1,0.1-0.1,0.2-0.1,0.4l0.3,7.5C2416.7,343.7,2416.8,343.8,2416.9,343.9L2416.9,343.9z M2444.1,343.9c0.1,0.1,0.3,0.2,0.5,0.3
			c0.2,0.1,0.4,0.2,0.7,0.2c0.2,0,0.5,0.1,0.8,0.1h20.4c0.3,0,0.5,0,0.8-0.1c0.2,0,0.5-0.1,0.6-0.2c0.2-0.1,0.3-0.2,0.4-0.3
			c0.1-0.1,0.1-0.2,0.1-0.4l-0.8-7.5c0-0.1-0.1-0.2-0.2-0.4c-0.1-0.1-0.3-0.2-0.5-0.3c-0.2-0.1-0.4-0.1-0.7-0.2
			c-0.2,0-0.5-0.1-0.8-0.1h-20.2c-0.3,0-0.5,0-0.8,0.1c-0.2,0-0.5,0.1-0.6,0.2s-0.3,0.2-0.4,0.3c-0.1,0.1-0.1,0.2-0.1,0.4l0.6,7.5
			C2443.9,343.7,2444,343.8,2444.1,343.9L2444.1,343.9z M2471.3,343.9c0.1,0.1,0.3,0.2,0.5,0.3c0.2,0.1,0.4,0.2,0.7,0.2
			c0.2,0,0.5,0.1,0.8,0.1h20.4c0.3,0,0.5,0,0.8-0.1c0.2,0,0.4-0.1,0.6-0.2c0.2-0.1,0.3-0.2,0.4-0.3c0.1-0.1,0.1-0.2,0.1-0.4l-1-7.5
			c0-0.1-0.1-0.2-0.2-0.3c-0.1-0.1-0.3-0.2-0.5-0.3c-0.2-0.1-0.4-0.1-0.7-0.2c-0.2,0-0.5-0.1-0.8-0.1h-20.2c-0.3,0-0.5,0-0.8,0.1
			c-0.2,0-0.4,0.1-0.6,0.2c-0.2,0.1-0.3,0.2-0.4,0.3c-0.1,0.1-0.1,0.2-0.1,0.4l0.8,7.5C2471.1,343.7,2471.2,343.8,2471.3,343.9
			L2471.3,343.9z M2498.7,343.9c0.1,0.1,0.3,0.2,0.5,0.3c0.2,0.1,0.4,0.2,0.7,0.2c0.3,0,0.5,0.1,0.8,0.1h37.6c0.3,0,0.5,0,0.8-0.1
			c0.2,0,0.4-0.1,0.6-0.2c0.2-0.1,0.3-0.2,0.4-0.3c0.1-0.1,0.1-0.2,0.1-0.4l-1.4-7.5c0-0.1-0.1-0.2-0.2-0.3
			c-0.1-0.1-0.3-0.2-0.5-0.3c-0.2-0.1-0.4-0.1-0.7-0.2c-0.2,0-0.5-0.1-0.8-0.1h-37.2c-0.3,0-0.5,0-0.8,0.1c-0.2,0-0.4,0.1-0.6,0.2
			c-0.2,0.1-0.3,0.2-0.4,0.3c-0.1,0.1-0.1,0.2-0.1,0.3l1.1,7.5C2498.5,343.7,2498.6,343.8,2498.7,343.9L2498.7,343.9z M2586.7,314.6
			H2567c-0.3,0-0.5,0-0.8,0.1s-0.4,0.1-0.6,0.2c-0.2,0.1-0.3,0.2-0.4,0.3c-0.1,0.1-0.1,0.2-0.1,0.3l1.6,7.1c0,0.1,0.1,0.2,0.2,0.3
			c0.1,0.1,0.3,0.2,0.5,0.3c0.2,0.1,0.4,0.1,0.7,0.2c0.2,0,0.5,0.1,0.8,0.1h19.9c0.3,0,0.5,0,0.8-0.1c0.2,0,0.4-0.1,0.6-0.2
			c0.2-0.1,0.3-0.2,0.4-0.3c0.1-0.1,0.1-0.2,0.1-0.3l-1.8-7.1c0-0.1-0.1-0.2-0.2-0.3c-0.1-0.1-0.3-0.2-0.5-0.3
			c-0.2-0.1-0.4-0.1-0.7-0.2C2587.2,314.7,2586.9,314.6,2586.7,314.6L2586.7,314.6z M2589.9,325c-0.2,0-0.5-0.1-0.8-0.1l-19.9,0
			c-0.3,0-0.5,0-0.8,0.1c-0.2,0-0.4,0.1-0.6,0.2c-0.2,0.1-0.3,0.2-0.4,0.3c-0.1,0.1-0.1,0.2-0.1,0.3l1.6,7.3c0,0.1,0.1,0.2,0.2,0.3
			c0.1,0.1,0.3,0.2,0.5,0.3c0.2,0.1,0.4,0.1,0.7,0.2c0.3,0,0.5,0.1,0.8,0.1l20.1,0c0.3,0,0.5,0,0.8-0.1c0.2,0,0.4-0.1,0.6-0.2
			c0.2-0.1,0.3-0.2,0.4-0.3c0.1-0.1,0.1-0.2,0.1-0.3l-1.9-7.3c0-0.1-0.1-0.2-0.2-0.3c-0.1-0.1-0.3-0.2-0.5-0.3
			C2590.4,325.1,2590.1,325,2589.9,325L2589.9,325z M2573.8,344.5h20.4c0.3,0,0.5,0,0.8-0.1c0.2,0,0.4-0.1,0.6-0.2
			c0.2-0.1,0.3-0.2,0.4-0.3c0.1-0.1,0.1-0.2,0.1-0.4l-1.9-7.5c0-0.1-0.1-0.2-0.2-0.4c-0.1-0.1-0.3-0.2-0.5-0.3
			c-0.2-0.1-0.4-0.1-0.7-0.2c-0.3,0-0.5-0.1-0.8-0.1l-20.2,0c-0.3,0-0.5,0-0.8,0.1c-0.2,0-0.4,0.1-0.6,0.2c-0.2,0.1-0.3,0.2-0.4,0.3
			c-0.1,0.1-0.1,0.2-0.1,0.3l1.7,7.5c0,0.1,0.1,0.2,0.2,0.4c0.1,0.1,0.3,0.2,0.5,0.3c0.2,0.1,0.4,0.1,0.7,0.2
			C2573.2,344.4,2573.5,344.5,2573.8,344.5L2573.8,344.5z M2598.8,354.5l-1.9-7.7c0-0.1-0.1-0.2-0.3-0.4c-0.1-0.1-0.3-0.2-0.5-0.3
			c-0.2-0.1-0.4-0.2-0.7-0.2c-0.3,0-0.5-0.1-0.8-0.1h-20.4c-0.3,0-0.5,0-0.8,0.1c-0.2,0-0.4,0.1-0.6,0.2c-0.2,0.1-0.3,0.2-0.4,0.3
			c-0.1,0.1-0.1,0.2-0.1,0.4l1.7,7.7c0,0.1,0.1,0.3,0.2,0.4c0.1,0.1,0.3,0.2,0.5,0.3c0.2,0.1,0.4,0.2,0.7,0.2c0.3,0,0.5,0.1,0.8,0.1
			h20.7c0.3,0,0.5,0,0.8-0.1c0.2,0,0.4-0.1,0.6-0.2c0.2-0.1,0.3-0.2,0.4-0.3C2598.9,354.8,2598.9,354.7,2598.8,354.5L2598.8,354.5z
			 M2545,344.4c0.3,0,0.5,0.1,0.8,0.1h20.4c0.3,0,0.5,0,0.8-0.1c0.2,0,0.4-0.1,0.6-0.2c0.2-0.1,0.3-0.2,0.4-0.3
			c0.1-0.1,0.1-0.2,0.1-0.4l-1.7-7.5c0-0.1-0.1-0.2-0.2-0.3c-0.1-0.1-0.3-0.2-0.5-0.3c-0.2-0.1-0.4-0.1-0.7-0.2
			c-0.3,0-0.5-0.1-0.8-0.1H2544c-0.3,0-0.5,0-0.8,0.1c-0.2,0-0.4,0.1-0.6,0.2c-0.2,0.1-0.3,0.2-0.4,0.3c-0.1,0.1-0.1,0.2-0.1,0.3
			l1.4,7.5c0,0.1,0.1,0.2,0.2,0.4c0.1,0.1,0.3,0.2,0.5,0.3C2544.5,344.3,2544.8,344.4,2545,344.4L2545,344.4z M2568.6,346.5
			c-0.1-0.1-0.3-0.2-0.5-0.3c-0.2-0.1-0.4-0.2-0.7-0.2c-0.3,0-0.5-0.1-0.8-0.1h-20.4c-0.3,0-0.5,0-0.8,0.1c-0.2,0-0.4,0.1-0.6,0.2
			c-0.2,0.1-0.3,0.2-0.4,0.3c-0.1,0.1-0.1,0.2-0.1,0.4l1.5,7.7c0,0.1,0.1,0.3,0.2,0.4c0.1,0.1,0.3,0.2,0.5,0.3
			c0.2,0.1,0.4,0.2,0.7,0.2c0.3,0,0.5,0.1,0.8,0.1l20.7,0c0.3,0,0.5,0,0.8-0.1c0.2,0,0.4-0.1,0.6-0.2c0.2-0.1,0.3-0.2,0.4-0.3
			c0.1-0.1,0.1-0.2,0.1-0.4l-1.7-7.7C2568.8,346.7,2568.7,346.6,2568.6,346.5L2568.6,346.5z M2540.5,346.5c-0.1-0.1-0.3-0.2-0.5-0.3
			c-0.2-0.1-0.4-0.2-0.7-0.2c-0.3,0-0.5-0.1-0.8-0.1h-20.4c-0.3,0-0.5,0-0.8,0.1c-0.2,0-0.4,0.1-0.6,0.2c-0.2,0.1-0.3,0.2-0.4,0.3
			c-0.1,0.1-0.1,0.2-0.1,0.4l1.2,7.7c0,0.1,0.1,0.3,0.2,0.4c0.1,0.1,0.3,0.2,0.5,0.3c0.2,0.1,0.4,0.2,0.7,0.2c0.3,0,0.5,0.1,0.8,0.1
			h20.7c0.3,0,0.6,0,0.8-0.1c0.2,0,0.4-0.1,0.6-0.2c0.2-0.1,0.3-0.2,0.4-0.3c0.1-0.1,0.1-0.2,0.1-0.4l-1.4-7.7
			C2540.7,346.8,2540.6,346.6,2540.5,346.5L2540.5,346.5z M2478.5,346.5c-0.1-0.1-0.3-0.2-0.5-0.3c-0.2-0.1-0.4-0.2-0.7-0.2
			c-0.2,0-0.5-0.1-0.8-0.1h-20.4c-0.3,0-0.5,0-0.8,0.1c-0.2,0-0.5,0.1-0.6,0.2c-0.2,0.1-0.3,0.2-0.4,0.3c-0.1,0.1-0.1,0.2-0.1,0.4
			l0.7,7.7c0,0.1,0.1,0.3,0.2,0.4c0.1,0.1,0.3,0.2,0.5,0.3c0.2,0.1,0.4,0.2,0.7,0.2c0.3,0,0.5,0.1,0.8,0.1h20.7c0.3,0,0.6,0,0.8-0.1
			c0.2,0,0.5-0.1,0.6-0.2c0.2-0.1,0.3-0.2,0.4-0.3c0.1-0.1,0.1-0.2,0.1-0.4l-0.9-7.7C2478.7,346.8,2478.7,346.6,2478.5,346.5
			L2478.5,346.5z M2450.5,346.5c-0.1-0.1-0.3-0.2-0.5-0.3c-0.2-0.1-0.4-0.2-0.7-0.2c-0.2,0-0.5-0.1-0.8-0.1h-20.4
			c-0.3,0-0.6,0-0.8,0.1c-0.2,0-0.5,0.1-0.6,0.2c-0.2,0.1-0.3,0.2-0.4,0.3c-0.1,0.1-0.1,0.2-0.1,0.4l0.4,7.7c0,0.1,0.1,0.3,0.2,0.4
			c0.1,0.1,0.3,0.2,0.5,0.3c0.2,0.1,0.4,0.2,0.7,0.2c0.3,0,0.5,0.1,0.8,0.1l20.7,0c0.3,0,0.6,0,0.8-0.1c0.2,0,0.5-0.1,0.6-0.2
			c0.2-0.1,0.3-0.2,0.4-0.3c0.1-0.1,0.1-0.2,0.1-0.4l-0.7-7.7C2450.7,346.7,2450.6,346.6,2450.5,346.5L2450.5,346.5z M2421.9,346.5
			c-0.1-0.1-0.3-0.2-0.5-0.3c-0.2-0.1-0.4-0.2-0.7-0.2c-0.2,0-0.5-0.1-0.8-0.1h-137.4c-0.3,0-0.6,0-0.8,0.1c-0.2,0-0.5,0.1-0.7,0.2
			c-0.2,0.1-0.4,0.2-0.5,0.3c-0.1,0.1-0.2,0.2-0.2,0.4l-0.9,7.7c0,0.1,0,0.3,0.1,0.4c0.1,0.1,0.2,0.2,0.4,0.3
			c0.2,0.1,0.4,0.2,0.6,0.2c0.2,0,0.5,0.1,0.8,0.1h138.9c0.3,0,0.6,0,0.8-0.1c0.2,0,0.5-0.1,0.6-0.2c0.2-0.1,0.3-0.2,0.4-0.3
			c0.1-0.1,0.2-0.2,0.1-0.4l-0.4-7.7C2422.1,346.8,2422,346.6,2421.9,346.5L2421.9,346.5z M2190.7,346.2c-0.2-0.1-0.4-0.2-0.6-0.2
			c-0.2,0-0.5-0.1-0.8-0.1h-25.3c-0.3,0-0.6,0-0.8,0.1c-0.3,0-0.5,0.1-0.7,0.2c-0.2,0.1-0.4,0.2-0.5,0.3c-0.1,0.1-0.2,0.2-0.3,0.4
			l-1.9,7.7c0,0.1,0,0.3,0.1,0.4c0.1,0.1,0.2,0.2,0.4,0.3c0.2,0.1,0.4,0.2,0.6,0.2c0.2,0,0.5,0.1,0.8,0.1h25.6c0.3,0,0.6,0,0.8-0.1
			c0.3,0,0.5-0.1,0.7-0.2c0.2-0.1,0.4-0.2,0.5-0.3c0.1-0.1,0.2-0.2,0.2-0.4l1.6-7.7c0-0.1,0-0.2-0.1-0.4
			C2191.1,346.4,2190.9,346.3,2190.7,346.2L2190.7,346.2z M2512,346.5c-0.1-0.1-0.3-0.2-0.5-0.3c-0.2-0.1-0.4-0.2-0.7-0.2
			c-0.3,0-0.5-0.1-0.8-0.1h-25.3c-0.3,0-0.5,0-0.8,0.1c-0.2,0-0.5,0.1-0.6,0.2c-0.2,0.1-0.3,0.2-0.4,0.3c-0.1,0.1-0.1,0.2-0.1,0.4
			l0.9,7.7c0,0.1,0.1,0.3,0.2,0.4c0.1,0.1,0.3,0.2,0.5,0.3c0.2,0.1,0.4,0.2,0.7,0.2c0.3,0,0.5,0.1,0.8,0.1h25.6c0.3,0,0.6,0,0.8-0.1
			c0.2,0,0.5-0.1,0.6-0.2c0.2-0.1,0.3-0.2,0.4-0.3c0.1-0.1,0.1-0.2,0.1-0.4l-1.2-7.7C2512.2,346.8,2512.1,346.6,2512,346.5
			L2512,346.5z M2173.5,303.4c0.1,0.1,0.3,0.1,0.5,0.2c0.2,0,0.4,0.1,0.7,0.1h18.2c0.3,0,0.5,0,0.7-0.1c0.2,0,0.4-0.1,0.6-0.2
			c0.2-0.1,0.3-0.2,0.4-0.2c0.1-0.1,0.2-0.2,0.2-0.3l0.9-4.2c0-0.1,0-0.2-0.1-0.3c-0.1-0.1-0.2-0.2-0.3-0.2
			c-0.1-0.1-0.3-0.1-0.5-0.2c-0.2,0-0.4-0.1-0.7-0.1h-18.1c-0.2,0-0.5,0-0.7,0.1c-0.2,0-0.4,0.1-0.6,0.2c-0.2,0.1-0.3,0.2-0.4,0.2
			c-0.1,0.1-0.2,0.2-0.2,0.3l-1,4.2c0,0.1,0,0.2,0.1,0.3C2173.2,303.2,2173.3,303.3,2173.5,303.4L2173.5,303.4z M2197.9,303.4
			c0.1,0.1,0.3,0.1,0.5,0.2c0.2,0,0.4,0.1,0.7,0.1l18.2,0c0.3,0,0.5,0,0.7-0.1c0.2,0,0.4-0.1,0.6-0.2c0.2-0.1,0.3-0.2,0.4-0.2
			c0.1-0.1,0.2-0.2,0.2-0.3l0.8-4.2c0-0.1,0-0.2-0.1-0.3c-0.1-0.1-0.2-0.2-0.3-0.2c-0.1-0.1-0.3-0.1-0.5-0.2c-0.2,0-0.4-0.1-0.7-0.1
			l-18.1,0c-0.3,0-0.5,0-0.7,0.1c-0.2,0-0.4,0.1-0.6,0.2c-0.2,0.1-0.3,0.2-0.4,0.2c-0.1,0.1-0.2,0.2-0.2,0.3l-0.9,4.2
			c0,0.1,0,0.2,0.1,0.3C2197.7,303.2,2197.8,303.3,2197.9,303.4L2197.9,303.4z M2222.4,303.4c0.2,0.1,0.3,0.1,0.5,0.2
			c0.2,0,0.4,0.1,0.7,0.1l18.2,0c0.3,0,0.5,0,0.7-0.1c0.2,0,0.4-0.1,0.6-0.2c0.2-0.1,0.3-0.2,0.4-0.2c0.1-0.1,0.2-0.2,0.2-0.3
			l0.7-4.2c0-0.1,0-0.2-0.1-0.3c-0.1-0.1-0.2-0.2-0.3-0.2c-0.2-0.1-0.3-0.1-0.5-0.2c-0.2,0-0.4-0.1-0.7-0.1h-18.1
			c-0.2,0-0.5,0-0.7,0.1c-0.2,0-0.4,0.1-0.6,0.2c-0.2,0.1-0.3,0.2-0.4,0.2c-0.1,0.1-0.2,0.2-0.2,0.3l-0.8,4.2c0,0.1,0,0.2,0.1,0.3
			C2222.1,303.2,2222.2,303.3,2222.4,303.4L2222.4,303.4z M2246.8,303.4c0.2,0.1,0.3,0.1,0.6,0.2c0.2,0,0.4,0.1,0.7,0.1l18.2,0
			c0.3,0,0.5,0,0.7-0.1c0.2,0,0.4-0.1,0.6-0.2c0.2-0.1,0.3-0.2,0.4-0.2c0.1-0.1,0.2-0.2,0.2-0.3l0.6-4.2c0-0.1,0-0.2-0.1-0.3
			c-0.1-0.1-0.2-0.2-0.4-0.2c-0.2-0.1-0.3-0.1-0.6-0.2c-0.2,0-0.4-0.1-0.7-0.1l-18.1,0c-0.2,0-0.5,0-0.7,0.1c-0.2,0-0.4,0.1-0.6,0.2
			c-0.2,0.1-0.3,0.2-0.4,0.2c-0.1,0.1-0.2,0.2-0.2,0.3l-0.7,4.2c0,0.1,0,0.2,0.1,0.3C2246.6,303.2,2246.7,303.3,2246.8,303.4
			L2246.8,303.4z M2271.3,303.4c0.2,0.1,0.3,0.1,0.6,0.2c0.2,0,0.4,0.1,0.7,0.1l18.2,0c0.3,0,0.5,0,0.7-0.1c0.2,0,0.4-0.1,0.6-0.2
			c0.2-0.1,0.3-0.2,0.4-0.2c0.1-0.1,0.2-0.2,0.2-0.3l0.4-4.2c0-0.1,0-0.2-0.1-0.3c-0.1-0.1-0.2-0.2-0.4-0.2
			c-0.2-0.1-0.3-0.1-0.6-0.2c-0.2,0-0.4-0.1-0.7-0.1h-18.1c-0.3,0-0.5,0-0.7,0.1c-0.2,0-0.4,0.1-0.6,0.2c-0.2,0.1-0.3,0.2-0.4,0.2
			c-0.1,0.1-0.2,0.2-0.2,0.3l-0.5,4.2c0,0.1,0,0.2,0.1,0.3C2271,303.2,2271.1,303.3,2271.3,303.4L2271.3,303.4z M2295.7,303.4
			c0.2,0.1,0.3,0.1,0.6,0.2c0.2,0,0.5,0.1,0.7,0.1h18.2c0.3,0,0.5,0,0.7-0.1c0.2,0,0.4-0.1,0.6-0.2c0.2-0.1,0.3-0.2,0.4-0.2
			c0.1-0.1,0.2-0.2,0.2-0.3l0.3-4.2c0-0.1,0-0.2-0.1-0.3c-0.1-0.1-0.2-0.2-0.4-0.2c-0.2-0.1-0.3-0.1-0.6-0.2c-0.2,0-0.4-0.1-0.7-0.1
			l-18.1,0c-0.3,0-0.5,0-0.7,0.1c-0.2,0-0.4,0.1-0.6,0.2c-0.2,0.1-0.3,0.2-0.4,0.2c-0.1,0.1-0.2,0.2-0.2,0.3l-0.4,4.2
			c0,0.1,0,0.2,0.1,0.3C2295.4,303.2,2295.5,303.3,2295.7,303.4L2295.7,303.4z M2320.1,303.4c0.2,0.1,0.4,0.1,0.6,0.2
			c0.2,0,0.5,0.1,0.7,0.1l18.2,0c0.3,0,0.5,0,0.7-0.1c0.2,0,0.4-0.1,0.6-0.2c0.2-0.1,0.3-0.2,0.4-0.2c0.1-0.1,0.2-0.2,0.2-0.3
			l0.2-4.2c0-0.1,0-0.2-0.1-0.3c-0.1-0.1-0.2-0.2-0.4-0.2c-0.2-0.1-0.4-0.1-0.6-0.2c-0.2,0-0.5-0.1-0.7-0.1l-18.1,0
			c-0.2,0-0.5,0-0.7,0.1c-0.2,0-0.4,0.1-0.6,0.2c-0.2,0.1-0.3,0.2-0.4,0.2c-0.1,0.1-0.2,0.2-0.2,0.3l-0.3,4.2c0,0.1,0,0.2,0.1,0.3
			C2319.9,303.2,2320,303.3,2320.1,303.4L2320.1,303.4z M2344.6,303.4c0.2,0.1,0.4,0.1,0.6,0.2c0.2,0,0.5,0.1,0.7,0.1h18.2
			c0.3,0,0.5,0,0.7-0.1c0.2,0,0.4-0.1,0.6-0.2c0.2-0.1,0.3-0.2,0.4-0.2c0.1-0.1,0.1-0.2,0.1-0.3l0.1-4.2c0-0.1,0-0.2-0.1-0.3
			c-0.1-0.1-0.2-0.2-0.4-0.2c-0.2-0.1-0.4-0.1-0.6-0.2c-0.2,0-0.5-0.1-0.7-0.1l-18.1,0c-0.2,0-0.5,0-0.7,0.1c-0.2,0-0.4,0.1-0.6,0.2
			c-0.2,0.1-0.3,0.2-0.4,0.2c-0.1,0.1-0.1,0.2-0.2,0.3l-0.2,4.2c0,0.1,0,0.2,0.1,0.3C2344.3,303.2,2344.4,303.3,2344.6,303.4
			L2344.6,303.4z M2369,303.4c0.2,0.1,0.4,0.1,0.6,0.2c0.2,0,0.5,0.1,0.7,0.1l18.2,0c0.3,0,0.5,0,0.7-0.1c0.2,0,0.4-0.1,0.6-0.2
			c0.2-0.1,0.3-0.2,0.4-0.2c0.1-0.1,0.1-0.2,0.1-0.3l-0.1-4.2c0-0.1-0.1-0.2-0.1-0.3c-0.1-0.1-0.2-0.2-0.4-0.2
			c-0.2-0.1-0.4-0.1-0.6-0.2c-0.2,0-0.5-0.1-0.7-0.1l-18.1,0c-0.2,0-0.5,0-0.7,0.1c-0.2,0-0.4,0.1-0.6,0.2c-0.2,0.1-0.3,0.2-0.4,0.2
			c-0.1,0.1-0.1,0.2-0.1,0.3l0,4.2c0,0.1,0,0.2,0.1,0.3C2368.7,303.2,2368.9,303.3,2369,303.4L2369,303.4z M2393.1,303.1
			c0.1,0.1,0.2,0.2,0.4,0.2c0.2,0.1,0.4,0.1,0.6,0.2c0.2,0,0.5,0.1,0.7,0.1h18.2c0.2,0,0.5,0,0.7-0.1c0.2,0,0.4-0.1,0.6-0.2
			c0.2-0.1,0.3-0.2,0.4-0.2c0.1-0.1,0.1-0.2,0.1-0.3l-0.2-4.2c0-0.1-0.1-0.2-0.2-0.3c-0.1-0.1-0.2-0.2-0.4-0.2
			c-0.2-0.1-0.4-0.1-0.6-0.2c-0.2,0-0.5-0.1-0.7-0.1l-18.1,0c-0.3,0-0.5,0-0.7,0.1c-0.2,0-0.4,0.1-0.6,0.2c-0.2,0.1-0.3,0.2-0.4,0.2
			c-0.1,0.1-0.1,0.2-0.1,0.3l0.1,4.2C2392.9,302.9,2393,303,2393.1,303.1L2393.1,303.1z M2417.5,303.1c0.1,0.1,0.2,0.2,0.4,0.2
			c0.2,0.1,0.4,0.1,0.6,0.2c0.2,0,0.5,0.1,0.7,0.1h18.2c0.3,0,0.5,0,0.7-0.1c0.2,0,0.4-0.1,0.6-0.2c0.2-0.1,0.3-0.2,0.4-0.2
			c0.1-0.1,0.1-0.2,0.1-0.3l-0.3-4.2c0-0.1-0.1-0.2-0.2-0.3c-0.1-0.1-0.2-0.2-0.4-0.2c-0.2-0.1-0.4-0.1-0.6-0.2
			c-0.2,0-0.5-0.1-0.7-0.1l-18.1,0c-0.3,0-0.5,0-0.7,0.1c-0.2,0-0.4,0.1-0.6,0.2c-0.2,0.1-0.3,0.2-0.4,0.2c-0.1,0.1-0.1,0.2-0.1,0.3
			l0.2,4.2C2417.3,302.9,2417.4,303,2417.5,303.1L2417.5,303.1z M2441.9,303.1c0.1,0.1,0.2,0.2,0.4,0.2c0.2,0.1,0.4,0.1,0.6,0.2
			c0.2,0,0.5,0.1,0.7,0.1h18.2c0.3,0,0.5,0,0.7-0.1c0.2,0,0.4-0.1,0.6-0.2c0.2-0.1,0.3-0.2,0.4-0.2c0.1-0.1,0.1-0.2,0.1-0.3
			l-0.4-4.2c0-0.1-0.1-0.2-0.2-0.3c-0.1-0.1-0.2-0.2-0.4-0.2c-0.2-0.1-0.4-0.1-0.6-0.2c-0.2,0-0.5-0.1-0.7-0.1l-18.1,0
			c-0.2,0-0.5,0-0.7,0.1c-0.2,0-0.4,0.1-0.6,0.2c-0.2,0.1-0.3,0.2-0.4,0.2c-0.1,0.1-0.1,0.2-0.1,0.3l0.3,4.2
			C2441.8,302.9,2441.8,303,2441.9,303.1L2441.9,303.1z M2466.3,303.1c0.1,0.1,0.2,0.2,0.4,0.2c0.2,0.1,0.4,0.1,0.6,0.2
			c0.2,0,0.5,0.1,0.7,0.1l18.2,0c0.3,0,0.5,0,0.7-0.1c0.2,0,0.4-0.1,0.6-0.2c0.2-0.1,0.3-0.2,0.4-0.2c0.1-0.1,0.1-0.2,0.1-0.3
			l-0.6-4.2c0-0.1-0.1-0.2-0.2-0.3c-0.1-0.1-0.2-0.2-0.4-0.2c-0.2-0.1-0.4-0.1-0.6-0.2c-0.2,0-0.5-0.1-0.7-0.1h-18.1
			c-0.2,0-0.5,0-0.7,0.1c-0.2,0-0.4,0.1-0.6,0.2c-0.2,0.1-0.3,0.2-0.4,0.2c-0.1,0.1-0.1,0.2-0.1,0.3l0.5,4.2
			C2466.2,302.9,2466.2,303,2466.3,303.1L2466.3,303.1z M2490.8,303.1c0.1,0.1,0.2,0.2,0.4,0.2c0.2,0.1,0.4,0.1,0.6,0.2
			c0.2,0,0.5,0.1,0.7,0.1l18.2,0c0.3,0,0.5,0,0.7-0.1c0.2,0,0.4-0.1,0.6-0.2c0.2-0.1,0.3-0.2,0.3-0.2c0.1-0.1,0.1-0.2,0.1-0.3
			l-0.7-4.2c0-0.1-0.1-0.2-0.2-0.3c-0.1-0.1-0.3-0.2-0.4-0.2c-0.2-0.1-0.4-0.1-0.6-0.2c-0.2,0-0.5-0.1-0.7-0.1l-18.1,0
			c-0.2,0-0.5,0-0.7,0.1c-0.2,0-0.4,0.1-0.6,0.2c-0.2,0.1-0.3,0.2-0.4,0.2c-0.1,0.1-0.1,0.2-0.1,0.3l0.6,4.2
			C2490.6,302.9,2490.7,303,2490.8,303.1L2490.8,303.1z M2515.2,303.1c0.1,0.1,0.3,0.2,0.4,0.2c0.2,0.1,0.4,0.1,0.6,0.2
			c0.2,0,0.5,0.1,0.7,0.1l18.2,0c0.3,0,0.5,0,0.7-0.1c0.2,0,0.4-0.1,0.5-0.2c0.2-0.1,0.3-0.2,0.3-0.2c0.1-0.1,0.1-0.2,0.1-0.3
			l-0.8-4.2c0-0.1-0.1-0.2-0.2-0.3c-0.1-0.1-0.3-0.2-0.4-0.2c-0.2-0.1-0.4-0.1-0.6-0.2c-0.2,0-0.5-0.1-0.7-0.1H2516
			c-0.2,0-0.5,0-0.7,0.1c-0.2,0-0.4,0.1-0.5,0.2c-0.2,0.1-0.3,0.2-0.3,0.2c-0.1,0.1-0.1,0.2-0.1,0.3l0.7,4.2
			C2515,302.9,2515.1,303,2515.2,303.1L2515.2,303.1z M2539.6,303.1c0.1,0.1,0.3,0.2,0.4,0.2c0.2,0.1,0.4,0.1,0.6,0.2
			c0.2,0,0.5,0.1,0.7,0.1l18.2,0c0.2,0,0.5,0,0.7-0.1c0.2,0,0.4-0.1,0.5-0.2c0.1-0.1,0.3-0.2,0.3-0.2c0.1-0.1,0.1-0.2,0.1-0.3
			l-0.9-4.2c0-0.1-0.1-0.2-0.2-0.3c-0.1-0.1-0.3-0.2-0.4-0.2c-0.2-0.1-0.4-0.1-0.6-0.2c-0.2,0-0.5-0.1-0.7-0.1l-18.1,0
			c-0.2,0-0.5,0-0.7,0.1c-0.2,0-0.4,0.1-0.5,0.2c-0.2,0.1-0.3,0.2-0.3,0.2c-0.1,0.1-0.1,0.2-0.1,0.3l0.8,4.2
			C2539.5,302.9,2539.6,303,2539.6,303.1L2539.6,303.1z M2564,303.1c0.1,0.1,0.3,0.2,0.4,0.2c0.2,0.1,0.4,0.1,0.6,0.2
			c0.2,0,0.5,0.1,0.7,0.1l18.2,0c0.3,0,0.5,0,0.7-0.1c0.2,0,0.4-0.1,0.5-0.2c0.1-0.1,0.3-0.2,0.3-0.2c0.1-0.1,0.1-0.2,0.1-0.3
			l-1.1-4.2c0-0.1-0.1-0.2-0.2-0.3c-0.1-0.1-0.3-0.2-0.4-0.2c-0.2-0.1-0.4-0.1-0.6-0.2c-0.2,0-0.5-0.1-0.7-0.1h-18.1
			c-0.3,0-0.5,0-0.7,0.1c-0.2,0-0.4,0.1-0.5,0.2c-0.1,0.1-0.3,0.2-0.3,0.2c-0.1,0.1-0.1,0.2-0.1,0.3l1,4.2
			C2563.9,302.9,2564,303,2564,303.1L2564,303.1z"/>
	</g>
	<g>
		
			<linearGradient id="SVGID_14_" gradientUnits="userSpaceOnUse" x1="2475.3291" y1="173.2343" x2="2475.3291" y2="399.43" gradientTransform="matrix(1 0 0 -1 0 447.8898)">
			<stop  offset="0" style="stop-color:#E0E0E0"/>
			<stop  offset="5.640000e-02" style="stop-color:#D4D4D4"/>
			<stop  offset="0.2483" style="stop-color:#AEAEAE"/>
			<stop  offset="0.4398" style="stop-color:#919191"/>
			<stop  offset="0.6285" style="stop-color:#7C7C7C"/>
			<stop  offset="0.8131" style="stop-color:#6F6F6F"/>
			<stop  offset="0.9888" style="stop-color:#6B6B6B"/>
		</linearGradient>
		<path class="st54" d="M2366.7,50.2c6,58.5,28.8,172.9,114.3,226.7h103l-4.9-226.7H2366.7L2366.7,50.2z"/>
	</g>
	<polygon class="st55" points="2584,276.9 2173.5,276.9 2179.1,50.2 2579.1,50.2 	"/>
</g>
</svg>
